
<svg xmlns="http://www.w3.org/2000/svg" version="1.1" xmlns:xlink="http://www.w3.org/1999/xlink" preserveAspectRatio="none" x="0px" y="0px" width="984px" height="200px" viewBox="0 0 984 200">
<defs>
<g id="logo_0_Layer1_0_FILL">
<path fill="#FFFFFF" stroke="none" d="
M 266.95 10.55
L 244.4 10.55 195.8 168.3 145.8 10.55 121.15 10.55 70.45 168.3 22.55 10.55 0 10.55 58.45 197.9 82.4 197.9 133.1 40.85 184.55 197.9 208.5 197.9 266.95 10.55
M 357.15 56.25
Q 356.2 55.95 355.3 55.7 330.45 49 307.4 59.05 304.35 60.4 301.35 62.05 298.35 63.65 295.6 65.45 279.85 75.75 271.5 91.95 268.65 97.5 266.6 103.75 266.4 104.4 266.2 105
L 266.15 105.15
Q 266.1 105.25 266.1 105.35 266.05 105.45 266 105.6 258.7 130.05 267.8 152.85 269.5 157.1 271.85 161.4 274.1 165.65 276.8 169.5 288.2 185.65 306.5 193.55 310.75 195.35 315.35 196.75 315.55 196.75 315.65 196.85 317.15 197.25 318.65 197.65 346.05 204.6 371.2 190.95 392.95 179.2 402.65 157.65
L 385.85 150.7
Q 382.2 158.15 376.45 163.9 371.4 168.9 364.85 172.6
L 362.45 173.95
Q 343.45 183.7 322.7 177.55 319.8 176.65 317.05 175.55 304 170.15 295.65 159.15
L 404.7 100.1
Q 403 95.8 400.7 91.6 386.25 64.9 357.15 56.25
M 353.35 74.6
Q 369.2 79.35 379.1 91.3
L 286.5 141.45
Q 283.3 131.15 284.6 120.35 285.1 115.6 286.55 110.75 292.6 90.45 310.7 79.85
L 314.35 77.9
Q 333.05 68.55 353.35 74.6
M 512.5 53.45
L 499.05 53.45
Q 473.95 55.55 455.3 73.3 454.7 73.9 454.1 74.45
L 454.1 0 433 0 433 197.9 454.1 197.9 454.1 178.5
Q 455.25 179.65 456.4 180.7 477.15 199.8 505.75 199.8 534.35 199.8 555.05 180.7 556.35 179.55 557.55 178.3 579.05 156.85 579.05 126.5 579.05 96.15 557.55 74.65 556.9 74 556.15 73.3 537.55 55.55 512.5 53.45
M 505.5 73.3
Q 506.5 73.25 507.55 73.25 508.55 73.25 509.6 73.3 530.5 74 545.5 89 561.25 104.75 561.25 127 561.25 149.2 545.5 164.95 530.25 180.2 508.9 180.7
L 506.15 180.7
Q 484.8 180.2 469.55 164.95 456 151.4 454.1 133.05 453.8 130.05 453.8 127 453.8 123.9 454.1 120.9 456 102.55 469.55 89 484.55 74 505.5 73.3
M 660.15 72.5
Q 677 72.5 685.85 78.95 693.5 84.5 694.7 94.35
L 716.5 94.35
Q 714.15 77.15 701.65 66.6 686.9 54.2 660.85 54.2 633.7 54.2 619.3 64.8 614.3 68.45 611.05 73.3 605.25 82 605.25 94.35 605.25 111.9 620 121.65 626 125.6 635.1 128.7 641.85 131 652.4 133.45
L 669.75 137.4
Q 679.2 139.7 684.85 142.1 691.95 145.1 695.55 149.1 699.6 153.6 699.6 159.85 699.6 172.8 685.8 178.5 676.45 182.4 663 182.4 654.6 182.4 647.9 180.7 639.3 178.5 633.5 173.5 624.75 165.95 623.55 153.5
L 601.7 153.5
Q 602.25 163.2 606.35 171.5 608.8 176.45 612.4 180.7 614.95 183.7 618.1 186.25 633.25 198.8 658.2 199.9 660.5 200 663 200 663.5 200 664 200 690.1 199.8 705.05 189.15 720.75 178.05 720.75 157.75 720.75 139.95 706 130.1 699.95 126.05 690.85 122.95 684.05 120.6 673.55 118.2
L 656.25 114.35
Q 646.7 112.15 641.1 109.9 634 107.1 630.4 103.25 626.35 99 626.35 92.95 626.35 76.5 648.25 73.3 653.55 72.5 660.15 72.5
M 773.55 56.35
L 752.4 56.35 752.4 197.9 773.55 197.9 773.55 56.35
M 774.25 32.4
L 774.25 4.9 751 4.9 751 32.4 774.25 32.4
M 829.85 197.9
L 829.85 0 808.75 0 808.75 197.9 829.85 197.9
M 886.2 0
L 865.1 0 865.1 197.9 886.2 197.9 886.2 147.7 896.3 137.65 954.55 197.65 984.1 197.65 927.05 142.05 909.9 124.1 927.05 106.15 984.1 50.55 954.55 50.55 886.2 121 886.2 0 Z"/>
</g>

<g id="logo_0_Layer0_0_FILL">
<path fill="#FFFFFF" fill-opacity="0" stroke="none" d="
M 984 200
L 984 0 0 0 0 200 984 200 Z"/>
</g>
</defs>

  <symbol id="logo-websilk" viewBox="0 0 984 200">
    <g transform="matrix( 1, 0, 0, 1, 0,0) ">
      <g transform="matrix( 1, 0, 0, 1, 0,0) ">
        <use xlink:href="#logo_0_Layer1_0_FILL"/>
      </g>

      <g transform="matrix( 1, 0, 0, 1, 0,0) ">
        <use xlink:href="#logo_0_Layer0_0_FILL"/>
      </g>
    </g>
  </symbol>
</svg>
