<svg xmlns="http://www.w3.org/2000/svg">


<style type="text/css">
    path:not(.svg-nocolor){fill:currentColor}
    use:not(.svg-nocolor):visited{color:currentColor}
    use:not(.svg-nocolor):hover{color:currentColor}
    use:not(.svg-nocolor):active{color:currentColor}
</style>


<defs>
<g id="btn_arrow_down_0_Layer1_0_FILL">
<path fill="#FFFFFF" stroke="none" d="
M 0 3
L 16 16 32 3 29 0 16 11 3 0 0 3 Z"/>
</g>

<g id="btn_arrow_down_0_Layer0_0_FILL">
<path fill="#FFFFFF" fill-opacity="0" stroke="none" d="
M 32 -8
L 0 -8 0 24 32 24 32 -8 Z"/>
</g>

<g id="btn_arrow_up_0_Layer1_0_FILL">
<path fill="#FFFFFF" stroke="none" d="
M 32 13
L 16 0 0 13 3 16 16 5 29 16 32 13 Z"/>
</g>

<g id="btn_arrow_up_0_Layer0_0_FILL">
<path fill="#FFFFFF" fill-opacity="0" stroke="none" d="
M 32 -8
L 0 -8 0 24 32 24 32 -8 Z"/>
</g>

<g id="icon_account_0_Layer1_0_FILL">
<path fill="#FFFFFF" fill-opacity="0" stroke="none" d="
M 15 0
L 0 0 0 15 15 15 15 0 Z"/>
</g>

<g id="icon_account_0_Layer0_0_FILL">
<path fill="#FFFFFF" stroke="none" d="
M 12.15 3.95
Q 11.9 3.6 11.65 3.35 10.9 2.65 10.05 2.25
L 10.5 1
Q 10.7 0.6 10.2 0.35
L 9.65 0.1
Q 9.05 -0.2 8.85 0.25
L 8.25 1.75
Q 7.9 1.7 7.55 1.7 6.5 1.7 5.6 2.05
L 5.05 0.75
Q 4.85 0.35 4.35 0.5
L 3.8 0.75
Q 3.15 0.95 3.25 1.45
L 4 2.9
Q 3.7 3.1 3.45 3.35 2.7 4.15 2.3 5.05
L 1 4.55
Q 0.6 4.35 0.35 4.85
L 0.1 5.4
Q -0.2 6 0.25 6.2
L 1.8 6.85
Q 1.75 7.15 1.75 7.5 1.75 8.5 2.05 9.45
L 0.75 9.95
Q 0.35 10.15 0.5 10.65
L 0.75 11.2
Q 0.95 11.85 1.45 11.75
L 2.95 11
Q 3.15 11.35 3.45 11.6 4.2 12.35 5.1 12.75
L 4.6 14
Q 4.4 14.4 4.9 14.65
L 5.45 14.9
Q 6.05 15.2 6.3 14.75
L 6.85 13.25
Q 7.2 13.3 7.55 13.3 8.55 13.3 9.5 13
L 10 14.25
Q 10.2 14.65 10.7 14.5
L 11.3 14.25
Q 11.9 14.05 11.8 13.55
L 11.1 12.1
Q 11.4 11.85 11.65 11.6
L 11.7 11.6
Q 12.4 10.85 12.85 10
L 14 10.45
Q 14.4 10.65 14.65 10.15
L 14.9 9.6
Q 15.2 9 14.75 8.8
L 13.3 8.2
Q 13.35 7.85 13.35 7.5 13.35 6.5 13.05 5.55
L 14.25 5.05
Q 14.65 4.85 14.5 4.35
L 14.25 3.8
Q 14.05 3.15 13.55 3.25
L 12.15 3.95
M 5.35 5.3
Q 6.3 4.4 7.55 4.4 8.85 4.4 9.7 5.3 10.6 6.15 10.6 7.5 10.6 8.8 9.7 9.65 8.85 10.55 7.55 10.55 6.3 10.55 5.35 9.65 4.5 8.8 4.5 7.5 4.5 6.2 5.35 5.3 Z"/>
</g>

<g id="icon_add_0_Layer1_0_FILL">
<path fill="#FFFFFF" fill-opacity="0" stroke="none" d="
M 0 0
L 0 15 15 15 15 0 0 0 Z"/>
</g>

<g id="icon_add_0_Layer0_0_FILL">
<path fill="#FFFFFF" stroke="none" d="
M 15 8
L 15 7 8 7 8 0 7 0 7 7 0 7 0 8 7 8 7 15 8 15 8 8 15 8 Z"/>
</g>

<g id="iconAddSmall_0_Layer1_0_FILL">
<path fill="#FFFFFF" fill-opacity="0" stroke="none" d="
M 22 0
L 0 0 0 22 22 22 22 0 Z"/>
</g>

<g id="iconAddSmall_0_Layer0_0_FILL">
<path fill="#FFFFFF" stroke="none" d="
M 22 12
L 22 10 12 10 12 0 10 0 10 10 0 10 0 12 10 12 10 22 12 22 12 12 22 12 Z"/>
</g>

<g id="icon_admin_0_Layer1_0_FILL">
<path fill="#FFFFFF" fill-opacity="0" stroke="none" d="
M 15 0
L 0 0 0 15 15 15 15 0 Z"/>
</g>

<g id="icon_admin_0_Layer0_0_FILL">
<path fill="#FFFFFF" stroke="none" d="
M 11.9 6.9
Q 12.35 6.4 12.6 5.75 12.9 5.1 12.9 4.25 12.9 2.9 12.1 1.9 11.8 1.5 11.35 1.15 9.8 0.05 7.55 0
L 3 0 3 15 5.25 15 5.25 8.75 5.45 8.8 6.5 8.85 10.8 15 13.2 15 8.7 8.5
Q 10 8.2 10.9 7.7 11.5 7.35 11.9 6.9
M 10.7 4.35
Q 10.7 5.2 10.25 5.75 9.35 6.95 6.5 6.95 5.95 6.95 5.45 6.95 5.35 6.95 5.25 6.95
L 5.25 1.8
Q 5.35 1.8 5.45 1.8 5.9 1.8 6.4 1.8
L 6.5 1.8
Q 7.55 1.8 8.3 1.9 8.45 1.9 8.65 1.95 9.6 2.15 10.1 2.8 10.7 3.4 10.7 4.35 Z"/>
</g>

<g id="icon_alerts_0_Layer1_0_FILL">
<path fill="#FFFFFF" fill-opacity="0" stroke="none" d="
M 25 0
L 0 0 0 25 25 25 25 0 Z"/>
</g>

<g id="icon_alerts_0_Layer0_0_FILL">
<path fill="#FFFFFF" stroke="none" d="
M 25 12.5
Q 25 7.35 21.3 3.7 17.85 0.15 12.85 0 12.7 0 12.45 0
L 12.4 0
Q 7.25 0.05 3.65 3.7 0 7.35 0 12.5 0 17.65 3.65 21.3 7.25 25 12.4 25
L 12.45 25
Q 12.7 25 12.85 25 17.85 24.85 21.35 21.3
L 21.3 21.3
Q 25 17.65 25 12.5
M 12.25 5.4
Q 12.2 5.25 12.2 5.1 12.2 4.85 12.4 4.65 12.55 4.45 12.85 4.45
L 12.9 4.45
Q 13.2 4.45 13.35 4.65 13.55 4.85 13.55 5.1 13.55 5.25 13.5 5.4 17.15 6.1 17.4 10.5
L 17.4 14.65
Q 17.85 15.8 19.35 16.2 20.45 16.7 20.2 17.45
L 14.5 17.45
Q 14.45 18.05 14 18.45 13.55 18.95 12.85 18.95 12.2 18.95 11.7 18.45 11.3 18.05 11.25 17.45
L 5.55 17.45
Q 5.3 16.7 6.4 16.2 7.85 15.8 8.35 14.65
L 8.35 10.5
Q 8.6 6.1 12.25 5.4 Z"/>
</g>

<g id="icon_analytics_0_Layer1_0_FILL">
<path fill="#FFFFFF" fill-opacity="0" stroke="none" d="
M 36 0
L 0 0 0 36 36 36 36 0 Z"/>
</g>

<g id="icon_analytics_0_Layer0_0_FILL">
<path fill="#FFFFFF" stroke="none" d="
M 3 0
L 0 0 0 36 36 36 36 33 3 33 3 0
M 26.9 19.15
L 22.35 14.45 14.6 23.7 9.8 18.6 5 25.35 5 30.95 36 30.95 36 9.95 35.95 9.95 26.9 19.15 Z"/>

<path fill="#FFFFFF" fill-opacity="0.09411764705882353" stroke="none" d="
M 5 30.95
L 5 31 36 31 36 30.95 5 30.95 Z"/>
</g>

<g id="icon_apps_0_Layer1_0_FILL">
<path fill="#FFFFFF" fill-opacity="0" stroke="none" d="
M 0 0
L 0 36 36 36 36 0 0 0 Z"/>
</g>

<g id="icon_apps_0_Layer0_0_FILL">
<path fill="#FFFFFF" stroke="none" d="
M 35.6 6.95
L 27.1 0.05 0 0 0 27.4 9.4 35.9 35.95 35.95 35.95 7.35 35.6 6.95
M 26.3 1.95
L 32.45 6.95 10.35 6.95 4.05 1.95 26.3 1.95
M 1.95 2.85
L 9.35 8.7 9.35 33.25 1.95 26.55 1.95 2.85 Z"/>
</g>

<g id="icon_arrow_down_0_Layer0_0_FILL">
<path fill="#FFFFFF" stroke="none" d="
M 8 5
L 16 0 0 0 8 5 Z"/>
</g>

<g id="arrow_0_Layer1_0_FILL">
<path fill="#FFFFFF" stroke="none" d="
M 23.6 12.1
Q 23.423046875 12.13203125 23.3 12.3
L 19.25 17.7
Q 19.150390625 17.833203125 19.15 18 19.15 18.1658203125 19.25 18.3
L 23.3 23.75
Q 23.42265625 23.91796875 23.6 23.95 23.83125 23.9771484375 24 23.85 24.16796875 23.727734375 24.2 23.5 24.2265625 23.31875 24.1 23.15
L 20.25 18 24.1 12.9
Q 24.2267578125 12.7314453125 24.2 12.5 24.1685546875 12.323046875 24 12.2 23.83203125 12.073046875 23.6 12.1 Z"/>
</g>

<g id="arrow_0_Layer0_0_FILL">
<path fill="#2B2B2B" fill-opacity="0" stroke="none" d="
M 5 0
L 5 36 27 36 27 0 5 0 Z"/>
</g>

<g id="arrow_0_Layer1_0_FILL">
<path fill="#FFFFFF" stroke="none" d="
M 23.6 12.1
Q 23.423046875 12.13203125 23.3 12.3
L 19.25 17.7
Q 19.150390625 17.833203125 19.15 18 19.15 18.1658203125 19.25 18.3
L 23.3 23.75
Q 23.42265625 23.91796875 23.6 23.95 23.83125 23.9771484375 24 23.85 24.16796875 23.727734375 24.2 23.5 24.2265625 23.31875 24.1 23.15
L 20.25 18 24.1 12.9
Q 24.2267578125 12.7314453125 24.2 12.5 24.1685546875 12.323046875 24 12.2 23.83203125 12.073046875 23.6 12.1 Z"/>
</g>

<g id="arrow_0_Layer0_0_FILL">
<path fill="#2B2B2B" fill-opacity="0" stroke="none" d="
M 5 0
L 5 36 27 36 27 0 5 0 Z"/>
</g>

<linearGradient id="Gradient_1" gradientUnits="userSpaceOnUse" x1="12.5" y1="2.0500000000000007" x2="12.5" y2="23.05" spreadMethod="pad">
<stop offset="0%" stop-color="#00AAA5"/>

<stop offset="100%" stop-color="#78D76A"/>
</linearGradient>

<g id="icon_background_0_Layer1_0_FILL">
<path fill="#FFFFFF" stroke="none" d="
M 25 0
L 0 0 0 25 25 25 25 0 Z"/>
</g>

<g id="icon_background_0_Layer0_0_FILL">
<path fill="url(#Gradient_1)" stroke="none" d="
M 23 2.05
L 2 2.05 2 23.05 23 23.05 23 2.05 Z"/>
</g>

<g id="icon_0_Layer1_0_FILL">
<path fill="#FFFFFF" fill-opacity="0.9882352941176471" stroke="none" d="
M 32 4.2
L 27.65 0 15.85 11.8 4.2 0.15 0 4.35 11.65 16 0 27.65 4.2 31.85 15.85 20.2 27.65 32 31.85 27.8 20.2 16.15 32 4.2 Z"/>
</g>

<g id="icon_0_Layer0_0_FILL">
<path fill="#FFFFFF" fill-opacity="0" stroke="none" d="
M 32 0
L 0 0 0 32 32 32 32 0 Z"/>
</g>

<g id="icon_collapse_0_Layer1_0_FILL">
<path fill="#FFFFFF" fill-opacity="0" stroke="none" d="
M 0 0
L 0 15 15 15 15 0 0 0 Z"/>
</g>

<g id="icon_collapse_0_Layer0_0_FILL">
<path fill="#FFFFFF" fill-opacity="0.4980392156862745" stroke="none" d="
M 15 0
L 0 0 0 15 15 15 15 0
M 14 14
L 1 14 1 1 14 1 14 14 Z"/>

<path fill="#FFFFFF" stroke="none" d="
M 11 8
L 11 7 4 7 4 8 11 8 Z"/>
</g>

<g id="icon_colorscheme_0_Layer2_0_FILL">
<path fill="#FFFFFF" fill-opacity="0" stroke="none" d="
M 0 0
L 0 25 25 25 25 0 0 0 Z"/>
</g>

<g id="icon_colorscheme_0_Layer1_0_FILL">
<path fill="#FFFFFF" stroke="none" d="
M 23.7 16.5
Q 24.5474609375 14.9111328125 22.95 15.3 21.3515625 15.727734375 17 16.05 13.9107421875 15.2412109375 17.3 13.55 20.7423828125 11.9115234375 22.55 11.4 24.3576171875 10.8791015625 24.1 8.85 23.83984375 6.8642578125 20.75 4.45 17.7052734375 2.046875 12.5 2.05 7.3 2.05 3.65 4.95 0 7.9 0 12.05 0 16.2 3.65 19.1 7.3 22.05 12.5 22.05 17.7 22.05 21.35 19.1 22.847265625 17.9103515625 23.7 16.5
M 14.85 10.9
Q 14.2 10.6 14.05 10.05 13.9 9.45 14.3 8.9 14.75 8.3 15.6 8.1 16.4 7.85 17.05 8.2 17.75 8.4 17.9 9 18.05 9.55 17.6 10.2 17.15 10.75 16.35 11 15.5 11.2 14.85 10.9 Z"/>
</g>

<g id="colorscheme_colors_0_Layer0_0_FILL">
<path fill="#CC0033" stroke="none" d="
M 9 14.5
Q 9 15.1 9.55 15.55 10.15 16 11 16 11.85 16 12.4 15.55 13 15.1 13 14.5 13 13.9 12.4 13.45 11.85 13 11 13 10.15 13 9.55 13.45 9 13.9 9 14.5 Z"/>

<path fill="#FF6600" stroke="none" d="
M 5 15
Q 5.85 15 6.4 14.55 7 14.1 7 13.5 7 12.9 6.4 12.45 5.85 12 5 12 4.15 12 3.55 12.45 3 12.9 3 13.5 3 14.1 3.55 14.55 4.15 15 5 15 Z"/>

<path fill="#FFCC00" stroke="none" d="
M 2 8
Q 1.15 8 0.55 8.45 0 8.9 0 9.5 0 10.1 0.55 10.55 1.15 11 2 11 2.85 11 3.4 10.55 4 10.1 4 9.5 4 8.9 3.4 8.45 2.85 8 2 8 Z"/>

<path fill="#669933" stroke="none" d="
M 1.55 5.55
Q 2.15 6 3 6 3.85 6 4.4 5.55 5 5.1 5 4.5 5 3.9 4.4 3.45 3.85 3 3 3 2.15 3 1.55 3.45 1 3.9 1 4.5 1 5.1 1.55 5.55 Z"/>

<path fill="#339999" stroke="none" d="
M 9.4 2.55
Q 10 2.1 10 1.5 10 0.9 9.4 0.45 8.85 0 8 0 7.15 0 6.55 0.45 6 0.9 6 1.5 6 2.1 6.55 2.55 7.15 3 8 3 8.85 3 9.4 2.55 Z"/>
</g>

<g id="icon_menu_0_Layer1_0_FILL">
<path fill="#FFFFFF" stroke="none" d="
M 32 6
L 32 3
Q 32 0 29 0
L 3 0
Q 0 0 0 3
L 0 6
Q 0 9 3 9
L 29 9
Q 32 9 32 6
M 5.55 3.45
Q 6 3.9 6 4.5 6 5.1 5.55 5.55 5.1 6 4.5 6 3.9 6 3.45 5.55 3 5.1 3 4.5 3 3.9 3.45 3.45 3.9 3 4.5 3 5.1 3 5.55 3.45
M 0 28
Q 0 31 3 31
L 29 31
Q 32 31 32 28
L 32 25
Q 32 22 29 22
L 3 22
Q 0 22 0 25
L 0 28
M 6 26.5
Q 6 27.1 5.55 27.55 5.1 28 4.5 28 3.9 28 3.45 27.55 3 27.1 3 26.5 3 25.9 3.45 25.45 3.9 25 4.5 25 5.1 25 5.55 25.45 6 25.9 6 26.5
M 32 14
Q 32 11 29 11
L 3 11
Q 0 11 0 14
L 0 17
Q 0 20 3 20
L 29 20
Q 32 20 32 17
L 32 14
M 6 15.5
Q 6 16.1 5.55 16.55 5.1 17 4.5 17 3.9 17 3.45 16.55 3 16.1 3 15.5 3 14.9 3.45 14.45 3.9 14 4.5 14 5.1 14 5.55 14.45 6 14.9 6 15.5 Z"/>
</g>

<g id="component_text_outline_0_Layer0_0_FILL">
<path fill="#FFFFFF" fill-opacity="0" stroke="none" d="
M 48 48
L 48 0 0 0 0 48 48 48 Z"/>
</g>

<path id="component_text_outline_0_Layer1_0_1_STROKES" stroke="#FFFFFF" stroke-width="1" stroke-linejoin="miter" stroke-linecap="butt" stroke-miterlimit="3" d="
M 47.5 12.5
L 44.5 12.5
Q 44.507421875 9.7705078125 43.7 7.825 42.8939453125 5.8849609375 41.6 5.275 40.2990234375 4.658203125 37.4 4.65
L 28.2 4.65 28.5 39.5
Q 28.3998046875 42.7373046875 29.45 43.65 30.4962890625 44.571484375 33.5 44.5
L 35.5 44.5 35.5 47.5 12.5 47.5 12.5 44.5 15.5 44.5
Q 17.4326171875 44.4951171875 18.6 43.35 19.7673828125 42.2048828125 19.6 39.4
L 19.6 4.65 10.5 4.65
Q 7.5029296875 4.6482421875 5.925 5.6 4.3396484375 6.5529296875 3.925 8.275 3.5134765625 9.9958984375 3.5 12.5
L 0.5 12.5 1.3 0.5 46.4 0.5 47.5 12.5 Z"/>

<g id="iconComponentSelect_0_Layer1_0_FILL">
<path fill="#FFFFFF" fill-opacity="0" stroke="none" d="
M 22 0
L 0 0 0 19 22 19 22 0 Z"/>
</g>

<g id="iconComponentSelect_0_Layer0_0_FILL">
<path fill="#FFFFFF" stroke="none" d="
M 22 14
L 22 0 0 0 0 19 18 19 18 14 22 14
M 20.7 2.3
Q 21 2.6 21 3 21 3.4 20.7 3.7 20.4 4 20 4 19.6 4 19.3 3.7 19 3.4 19 3 19 2.6 19.3 2.3 19.6 2 20 2 20.4 2 20.7 2.3
M 20.7 6.3
Q 21 6.6 21 7 21 7.4 20.7 7.7 20.4 8 20 8 19.6 8 19.3 7.7 19 7.4 19 7 19 6.6 19.3 6.3 19.6 6 20 6 20.4 6 20.7 6.3
M 20.7 10.3
Q 21 10.6 21 11 21 11.4 20.7 11.7 20.4 12 20.05 12
L 20 12
Q 19.6 12 19.3 11.7 19 11.4 19 11 19 10.6 19.3 10.3 19.6 10 20 10 20.4 10 20.7 10.3
M 16 2
L 16 17 2 17 2 2 16 2 Z"/>
</g>

<g id="icon_cycle_0_Layer1_0_FILL">
<path fill="#FFFFFF" fill-opacity="0" stroke="none" d="
M 25 0
L 0 0 0 25 25 25 25 0 Z"/>
</g>

<g id="icon_cycle_0_Layer0_0_FILL">
<path fill="#FFFFFF" stroke="none" d="
M 0.05 23
L 2.15 20.9 3.1 20 5 18.15 0 18 0.05 23 Z"/>

<path fill="#FFFFFF" fill-opacity="0.9882352941176471" stroke="none" d="
M 10.55 2
Q 14.85 2 17.9 5.05 21 8.1 21 12.5 21 16.9 17.9 19.95 14.85 23.05 10.55 23.05 6.2 23.05 3.1 20
L 2.15 20.9 1.7 21.4
Q 5.4 25 10.55 25 15.65 25 19.3 21.35 23 17.7 23 12.5 23 7.3 19.3 3.65 15.65 0 10.55 0 5.35 0 1.7 3.65
L 3.1 5.05
Q 6.15 2 10.55 2 Z"/>
</g>

<g id="icon_dashboard_0_Layer1_0_FILL">
<path fill="#333333" stroke="none" d="
M 15 0
L 0 0 0 15 15 15 15 0
M 1 1
L 14 1 14 14 1 14 1 1
M 4 2
L 2 2 2 13 4 13 4 2 Z"/>
</g>

<g id="icon_dashboard_0_Layer0_0_FILL">
<path fill="#FFFFFF" fill-opacity="0" stroke="none" d="
M 15 0
L 0 0 0 15 15 15 15 0 Z"/>
</g>

<g id="icon_designs_0_Layer1_0_FILL">
<path fill="#FFFFFF" fill-opacity="0" stroke="none" d="
M 36 0
L 0 0 0 36 36 36 36 0 Z"/>
</g>

<g id="icon_designs_0_Layer0_0_FILL">
<path fill="#FFFFFF" stroke="none" d="
M 0 35.95
L 3.15 34.95 1.05 32.85 0 35.95
M 10.45 32.55
L 10.5 32.5 10.55 30.85 9 30.85 8.9 29.05 7.1 28.95 7.1 27.2 5.35 27.2 5.4 25.6 3.5 25.5 3.45 25.45 3.45 25.5 3.45 25.55 1.25 32.15 3.8 34.7 10.45 32.55
M 15.65 11.9
L 14.5 10.75
Q 13.15 9.75 13.45 6.55 13.35 4.4 12.05 3.2
L 9.2 0.8
Q 7.4 -0.25 6.6 0.3
L 8.9 3.85
Q 9.55 5.45 7.85 6.8 5.4 8.3 4 7.2 2.6 5.5 1.9 3.6
L 1.45 3.1 0.8 3.95
Q 0.75 7.7 1.5 10.05 2.35 12 4.6 12.35 8.85 12.65 10.55 14.35
L 11.9 15.7 15.65 11.9
M 28.75 14.25
L 21.7 7.2 4.5 24.35 4.55 24.4 6.4 24.6 6.35 26.2 8.1 26.2 8.1 27.95 9.9 28.05 10 29.85 11.55 29.85 11.55 31.4 11.6 31.45 28.75 14.25
M 25.65 21.85
Q 25.5 21.75 25.4 21.65
L 23.95 20.2 20.2 23.95 21.5 25.25
Q 21.55 25.3 21.65 25.35 22.8 26.45 22.5 29.45 22.6 31.55 23.95 32.75
L 26.75 35.15
Q 28.6 36.25 29.4 35.65
L 27.05 32.1
Q 26.4 30.5 28.1 29.15 30.55 27.7 31.95 28.75 33.4 30.45 34.05 32.4
L 34.5 32.85 35.15 32
Q 35.25 28.25 34.45 25.9 33.6 23.95 31.35 23.65 27.4 23.35 25.65 21.85 Z"/>

<path fill="#FFFFFF" fill-opacity="0.9882352941176471" stroke="none" d="
M 3.45 25.55
L 3.45 25.5 3.4 25.45 3.45 25.55
M 30.05 9.55
L 28.6 8.1 26.4 10.35 27.85 11.8 30.05 9.55
M 25.85 9.8
L 28.05 7.55 26.6 6.1 24.4 8.35 25.85 9.8
M 22.45 6.4
L 23.85 7.8 26.05 5.55 24.7 4.2 22.45 6.4
M 31.75 11.25
L 30.6 10.1 28.4 12.35 29.55 13.5 31.75 11.25
M 32.55 10.5
L 35.95 7.05
Q 35.05 1.15 28.85 0
L 25.45 3.4 32.55 10.5 Z"/>
</g>

<g id="icon_expand_0_Layer1_0_FILL">
<path fill="#FFFFFF" fill-opacity="0" stroke="none" d="
M 0 0
L 0 15 15 15 15 0 0 0 Z"/>
</g>

<g id="icon_expand_0_Layer0_0_FILL">
<path fill="#FFFFFF" fill-opacity="0.4980392156862745" stroke="none" d="
M 15 0
L 0 0 0 15 15 15 15 0
M 14 14
L 1 14 1 1 14 1 14 14 Z"/>

<path fill="#FFFFFF" stroke="none" d="
M 11 8
L 11 7 8 7 8 4 7 4 7 7 4 7 4 8 7 8 7 11 8 11 8 8 11 8 Z"/>
</g>

<g id="icon_folder_0_Layer1_0_FILL">
<path fill="#FFFFFF" fill-opacity="0" stroke="none" d="
M 0 0
L 0 32 32 32 32 0 0 0 Z"/>
</g>

<g id="icon_folder_0_Layer0_0_FILL">
<path fill="#FFFFFF" stroke="none" d="
M 14.95 8.55
L 10.65 4.25 0 4.25 0 27.75 32 27.75 32 8.55 14.95 8.55
M 10.65 6.4
L 14.95 10.65 29.85 10.65 29.85 25.6 2.15 25.6 2.15 6.4 10.65 6.4 Z"/>
</g>

<g id="iconFolderFiles_0_Layer1_0_FILL">
<path fill="#FFFFFF" fill-opacity="0" stroke="none" d="
M 25 25
L 25 0 0 0 0 25 25 25 Z"/>
</g>

<g id="iconFolderFiles_0_Layer0_0_FILL">
<path fill="#FFFFFF" stroke="none" d="
M 9 7
L 0 7 0 25 25 25 25 10 11 10 9 7
M 23 12
L 23 23 2 23 2 9 8 9 10 12 23 12
M 22 9
L 23 3 3 0 2 6 10 6 12 9 22 9 Z"/>
</g>

<g id="icon_fonts_0_Layer1_0_FILL">
<path fill="#FFFFFF" fill-opacity="0" stroke="none" d="
M 25 25
L 25 0 0 0 0 25 25 25 Z"/>
</g>

<g id="icon_fonts_0_Layer0_0_FILL">
<path fill="#FFFFFF" stroke="none" d="
M 12.65 2.75
Q 12.4 2.35 11.95 2.3 11.2 2.2 10.5 2.4 9.75 2.6 9.15 3.05 8.4 4.4 7.65 5.7 6.95 6.9 6.3 8 4.65 10.7 3.15 13.25 1.65 15.9 0.35 18.1 0.2 18.5 0.1 18.75 0 19.05 0 19.3 0 19.65 0.3 19.85 0.6 20.05 1.15 20.05 1.7 20.05 2.2 19.95 2.75 19.85 3.25 19.7 3.1 19.1 3.25 18.55 3.4 17.9 3.65 17.4 3.85 16.95 4.1 16.45 4.35 15.95 4.55 15.65 4.7 15.3 4.95 15.1 5.15 14.85 5.6 14.6 7.4 14.6 9.2 14.55 9.45 14.55 9.7 14.5 10.05 14.45 10.3 14.25 10.35 15.15 10.4 16.05 10.5 16.95 10.65 17.85 10.8 19 11.15 19.5 11.5 20 12.1 20.05 12.85 20.15 13.55 19.95 14.3 19.75 14.9 19.35 14.5 19 14.25 18.45 13.95 17.85 13.8 17.05 13.65 16.3 13.5 15.35 13.4 14.45 13.35 13.35 13.3 13.05 13.3 12.25 13.25 11.5 13.2 10.55 13.15 9.6 13.1 8.75 13.05 8 13.05 7.7 13.05 7.25 13 6.8 12.95 6.3 12.95 5.75 12.95 5.2 12.95 4.7 12.95 4.25 12.95 3.85 12.9 3.15 12.65 2.75
M 9.9 5.5
Q 9.95 6.15 10 7.05 10.05 8 10.1 9 10.15 10.05 10.15 11 10.2 11.95 10.2 12.65 10.1 12.65 9.95 12.7 9.8 12.7 9.6 12.7
L 6 12.7
Q 7.1 10.65 8.1 8.75 9.1 6.9 9.9 5.5
M 21.35 11.05
Q 20.95 10.95 20.5 10.95 19.5 10.95 18.65 11.55 17.7 12.1 17 13.1 16.25 14.1 15.85 15.25 15.45 16.4 15.4 17.6 15.4 18.65 15.8 19.25 16.2 19.9 17.1 19.9
L 17.3 19.9
Q 18.1 19.85 19 19.1 19.85 18.3 20.75 16.85 20.75 17.1 20.7 17.45 20.7 17.85 20.7 18.15 20.7 19.05 21.05 19.45 21.45 19.9 22.1 19.9 22.6 19.85 23.1 19.6 23.55 19.3 24 18.85 24.45 18.35 24.7 17.85 25 17.35 25 16.9 25 16.85 25 16.8 24.95 16.75 24.9 16.75 24.8 16.75 24.55 16.95 24.3 17.15 23.95 17.6 23.7 17.8 23.5 17.95 23.3 18.1 23.15 18.15 23.1 18.05 23.05 17.85 23 17.7 23 17.45 23 17.1 23.1 16.45 23.2 15.8 23.35 15.05 23.55 14.3 23.75 13.5 23.95 12.75 24.15 12.2 24.35 11.6 24.55 11.35 24.2 11.15 23.85 11.05 23.5 10.95 23.15 10.95 22.8 10.95 22.55 11.05 22.25 11.15 22.05 11.4 21.75 11.15 21.35 11.05
M 20.35 12.15
Q 20.75 12.15 21.1 12.35 21.45 12.55 21.6 13.05 21.45 13.55 21.15 14.2 20.85 14.8 20.5 15.45 20.15 16.1 19.75 16.7 19.3 17.4 18.9 17.8 18.55 18.15 18.3 18.15 18 18.15 17.9 17.95 17.75 17.75 17.75 17.35 17.75 16.55 17.95 15.65 18.15 14.75 18.6 13.9 18.95 13.15 19.4 12.65 19.85 12.15 20.35 12.15 Z"/>
</g>

<g id="icon_grid_0_Layer1_0_FILL">
<path fill="#FFFFFF" fill-opacity="0" stroke="none" d="
M 25 0
L 0 0 0 25 25 25 25 0 Z"/>
</g>

<g id="icon_grid_0_Layer0_0_FILL">
<path fill="#FFFFFF" stroke="none" d="
M 20 20
L 20 25 25 25 25 20 20 20
M 15 20
L 10 20 10 25 15 25 15 20
M 10 10
L 10 15 15 15 15 10 10 10
M 5 20
L 0 20 0 25 5 25 5 20
M 5 10
L 0 10 0 15 5 15 5 10
M 5 0
L 0 0 0 5 5 5 5 0
M 15 5
L 15 0 10 0 10 5 15 5
M 25 5
L 25 0 20 0 20 5 25 5
M 25 15
L 25 10 20 10 20 15 25 15 Z"/>
</g>

<g id="iconHelp_0_Layer1_0_FILL">
<path fill="#FFFFFF" fill-opacity="0" stroke="none" d="
M 18 18
L 18 0 0 0 0 18 18 18 Z"/>
</g>

<g id="iconHelp_0_Layer0_0_FILL">
<path fill="#FFFFFF" stroke="none" d="
M 18 9.25
L 18 8.8
Q 17.9 5.15 15.35 2.6 12.85 0.1 9.25 0
L 8.8 0
Q 5.15 0.1 2.6 2.6 0.1 5.15 0 8.8
L 0 9.25
Q 0.1 12.85 2.6 15.35 5.15 17.9 8.8 18
L 9.25 18
Q 12.85 17.9 15.35 15.35 17.9 12.85 18 9.25
M 13.95 4.05
Q 16 6.1 16 9 16 11.95 13.95 13.95 11.9 16 9 16 6.1 16 4.05 13.95 2 11.95 2 9 2 6.1 4.05 4.05 6.1 2 9 2 11.9 2 13.95 4.05
M 9.75 11.85
L 8.25 11.85 8.25 13.35 9.75 13.35 9.75 11.85
M 10.35 8.4
Q 11.3 7.65 11.65 7.15 11.95 6.75 11.95 6.25 11.95 5.35 11.1 4.65 10.3 3.95 8.95 3.95 7.6 3.95 6.8 4.65 6 5.35 5.95 6.3
L 7.45 6.45
Q 7.55 5.8 7.95 5.45 8.4 5.15 9 5.15 9.6 5.15 10 5.4 10.4 5.75 10.4 6.2 10.4 6.55 10.15 6.8 10 6.95 9.3 7.5 8.65 8.05 8.4 8.45 8.15 8.9 8.15 9.55 8.15 9.6 8.15 9.95
L 9.6 9.95
Q 9.6 9.3 9.7 9.05 9.85 8.85 10.35 8.4 Z"/>
</g>

<g id="iconHistory_0_Layer1_0_FILL">
<path fill="#FFFFFF" stroke="none" d="
M 28 14
Q 28 8.2 23.9 4.1 19.8 0 14 0 8.2 0 4.1 4.1 0 8.2 0 14 0 19.8 4.1 23.9 8.2 28 14 28 19.8 28 23.9 23.9 28 19.8 28 14
M 26 14
Q 26 18.95 22.45 22.45 18.95 26 14 26 9.05 26 5.5 22.45 2 18.95 2 14 2 9.05 5.5 5.5 9.05 2 14 2 18.95 2 22.45 5.5 26 9.05 26 14
M 15 5
L 13 5 13 14 17.75 18.75 18.75 17.75 15 14 15 5 Z"/>
</g>

<g id="iconHistory_0_Layer0_0_FILL">
<path fill="#FFFFFF" fill-opacity="0" stroke="none" d="
M 30 -2
L -2 -2 -2 30 30 30 30 -2 Z"/>
</g>

<g id="icon_layers_0_Layer1_0_FILL">
<path fill="#FFFFFF" fill-opacity="0" stroke="none" d="
M 36 0
L 0 0 0 36 36 36 36 0 Z"/>
</g>

<g id="icon_layers_0_Layer0_0_FILL">
<path fill="#FFFFFF" fill-opacity="0.45098039215686275" stroke="none" d="
M 36.05 22.05
L 32.35 20.55 25.4 29.05 3.7 20.45 0 25 25.4 35.05 36.05 22.05 Z"/>

<path fill="#FFFFFF" stroke="none" d="
M 25.4 23.05
L 32.35 14.55 36.05 10.05 10.65 0 0 13 3.7 14.45 25.4 23.05 Z"/>

<path fill="#FFFFFF" fill-opacity="0.8" stroke="none" d="
M 32.35 14.55
L 25.4 23.05 3.7 14.45 0 19 3.7 20.45 25.4 29.05 32.35 20.55 36.05 16.05 32.35 14.55 Z"/>
</g>

<g id="iconLayout_0_Layer1_0_FILL">
<path fill="#FFFFFF" stroke="none" d="
M 0 0
L 0 36 36 36 36 0 0 0
M 2 2
L 34 2 34 34 2 34 2 2
M 4 29
L 4 30 33 30 33 29 4 29
M 32 7
L 32 6 4 6 4 7 32 7 Z"/>
</g>

<g id="iconLayout_0_Layer0_0_FILL">
<path fill="#FFFFFF" fill-opacity="0" stroke="none" d="
M 36 36
L 36 0 0 0 0 36 36 36 Z"/>
</g>

<g id="logo_websilk_0_Layer1_0_FILL">
<path fill="#FFFFFF" fill-opacity="0" stroke="none" d="
M 120 25
L 120 0 0 0 0 25 120 25 Z"/>
</g>

<g id="logo_websilk_0_Layer0_0_FILL">
<path fill="#FFFFFF" stroke="none" d="
M 22.4 24
L 25.3 24 32.4 1.25 29.7 1.25 23.8 20.45 17.7 1.25 14.7 1.25 8.55 20.45 2.75 1.25 0 1.25 7.1 24 10 24 16.15 4.95 22.4 24
M 49.15 12.15
Q 48.95 11.6 48.7 11.1 46.9 7.85 43.4 6.8 43.25 6.8 43.15 6.75 40.15 5.95 37.35 7.15 36.95 7.3 36.6 7.5 36.25 7.7 35.9 7.95 34 9.2 33 11.15 32.65 11.8 32.4 12.6 32.35 12.65 32.35 12.75 32.3 12.75 32.3 12.8 31.4 15.8 32.55 18.55 32.75 19.05 33 19.6 33.3 20.1 33.6 20.55 35 22.55 37.25 23.5 37.75 23.7 38.3 23.9
L 38.35 23.9
Q 38.55 23.95 38.7 24 42.05 24.85 45.1 23.2 47.75 21.75 48.9 19.15
L 46.85 18.3
Q 46.4 19.2 45.75 19.9 45.1 20.5 44.3 20.95
L 44 21.1
Q 41.7 22.3 39.2 21.55 38.85 21.45 38.5 21.3 36.95 20.65 35.9 19.3
L 49.15 12.15
M 42.9 9.05
Q 44.85 9.6 46.05 11.05
L 34.8 17.15
Q 34.4 15.9 34.55 14.6 34.65 14 34.8 13.45 35.55 10.95 37.75 9.7
L 38.2 9.45
Q 40.45 8.3 42.9 9.05
M 67.55 8.9
Q 65.3 6.75 62.25 6.45
L 60.6 6.45
Q 57.55 6.75 55.3 8.9 55.25 8.95 55.15 9
L 55.15 0 52.6 0 52.6 24 55.15 24 55.15 21.65
Q 55.3 21.8 55.45 21.95 57.95 24.25 61.45 24.25 64.9 24.25 67.45 21.95 67.6 21.8 67.75 21.65 70.35 19.05 70.35 15.35 70.35 11.65 67.75 9.05 67.65 8.95 67.55 8.9
M 61.9 8.9
Q 64.45 8.95 66.25 10.8 68.2 12.7 68.2 15.4 68.2 18.1 66.25 20 64.4 21.85 61.8 21.95
L 61.5 21.95
Q 58.9 21.85 57.05 20 55.4 18.35 55.15 16.15 55.15 15.8 55.15 15.4 55.15 15.05 55.15 14.65 55.4 12.45 57.05 10.8 58.85 8.95 61.4 8.9 61.55 8.9 61.65 8.9 61.8 8.9 61.9 8.9
M 87.05 11.05
Q 86.75 8.9 85.25 7.55 83.45 6 80.3 6 77 6 75.25 7.35 74.65 7.8 74.25 8.45 73.55 9.5 73.55 11.05 73.55 13.2 75.3 14.45 76.05 14.95 77.15 15.35 77.95 15.65 79.25 15.95
L 81.35 16.4
Q 82.5 16.75 83.2 17.05 84.05 17.4 84.5 17.9 85 18.5 85 19.25 85 20.85 83.3 21.55 82.15 22.1 80.55 22.1 79.5 22.1 78.7 21.9 77.65 21.55 76.95 20.95 75.9 20 75.75 18.5
L 73.1 18.5
Q 73.15 19.65 73.65 20.7 73.95 21.3 74.4 21.9 74.7 22.25 75.1 22.55 76.95 24.15 79.95 24.25 80.25 24.3 80.55 24.3 80.6 24.3 80.65 24.3 83.85 24.25 85.65 22.9 87.55 21.5 87.55 19 87.55 16.8 85.75 15.55 85.05 15 83.95 14.6 83.1 14.35 81.85 14.05
L 79.7 13.55
Q 78.55 13.25 77.9 13 77 12.65 76.6 12.15 76.1 11.6 76.1 10.85 76.1 8.8 78.75 8.45 79.4 8.3 80.2 8.3 82.25 8.3 83.3 9.1 84.25 9.8 84.4 11.05
L 87.05 11.05
M 91.25 0
L 91.25 3 94.05 3 94.05 0 91.25 0
M 100.8 0
L 98.25 0 98.25 24 100.8 24 100.8 0
M 93.95 6
L 91.4 6 91.4 24 93.95 24 93.95 6
M 119.55 6.1
L 115.95 6.1 107.65 14.65 107.65 0 105.1 0 105.1 24 107.65 24 107.65 17.9 108.9 16.7 115.95 24 119.55 24 110.55 15.05 119.55 6.1 Z"/>
</g>

<g id="icon_logo_0_Layer1_0_FILL">
<path fill="#FFFFFF" stroke="none" d="
M 34.25 2.3
Q 33.95 1.55 33.25 1 32.55 0.55 31.7 0.35 30.85 0.1 29.8 0.1 29.65 0.1 29.5 0.2 29.4 0.4 29.4 0.55 29.4 1 29.75 1 29.95 1.1 30.2 1 30.35 1 30.5 1.1 31.2 1.2 32.05 1.55 32.7 1.85 33.15 2.5 33.35 2.9 33.4 3.25 33.5 3.65 33.5 4 33.5 5.2 33 6.6 32.5 8.05 31.8 9.4 31.1 10.8 30.3 12.05 29.4 13.6 28.9 14.35 26.95 17.2 24.9 19.85 22.7 22.55 20.85 25.4 20.85 23.95 20.85 22.55 20.8 21.1 20.8 19.6
L 20.8 17.2
Q 20.8 16 20.65 14.65 20.55 13.5 20.3 12.25 20.15 11 19.75 9.9 19.7 9.7 19.55 9.65 19.4 9.4 19.2 9.4 19.05 9.4 18.9 9.6 18.5 10.25 18 11.05
L 17.1 12.55
Q 15.95 14.35 15.1 15.7
L 13.1 18.8
Q 12.15 20.3 11.25 21.65 10.25 23.05 9.35 24.4 9.6 22.45 9.8 20.5 10 18.2 10.2 16.55 10.35 14.8 10.35 13.3 10.55 11.6 10.55 10 10.55 8.6 10.35 7.1 10.35 5.7 10 4.25 10.05 4.15 10.05 4 10.05 3.8 9.95 3.65 9.8 3.5 9.6 3.5 9.5 3.5 9.3 3.55 8.6 3.85 7.4 4.45 6.45 4.9 5.4 5.5 4.35 6.1 3.45 6.9 2.45 7.7 1.7 8.6 0.85 9.4 0.45 10.45 0 11.45 0 12.6 0 12.85 0.1 13 0.25 13.1 0.45 13.1 0.75 13.1 0.8 12.85
L 1 12.25
Q 1.05 11.95 1.15 11.7 1.7 10.3 2.75 9.4 3.85 8.4 4.95 7.7 6 7 7.15 6.5 8.25 5.9 9.2 5.05 9.35 6.3 9.35 7.6 9.35 9.8 9.15 12 8.95 14.2 8.8 16.3 8.45 18.7 8.2 20.5 8 22.45 8 24.6
L 8 25.8
Q 8 26.5 8.1 27 8.15 27.35 8.5 27.35 8.75 27.35 8.8 27.25 8.95 27.1 8.95 26.95 10.65 25.5 11.9 23.6 13.1 21.7 14.3 19.7 15.6 17.65 16.75 15.5 18 13.45 19.1 11.2 19.25 12.35 19.25 13.3 19.35 14.45 19.35 15.5 19.35 17.2 19.25 18.85 19.2 20.6 19.2 22.25 19.2 23.4 19.35 24.6 19.5 25.75 19.85 26.9
L 19.95 26.95
Q 20.1 27.35 20.45 27.35 20.55 27.35 20.75 27.25 21.65 26.35 23.1 24.7 24.45 23.1 26.1 21 27.55 19.1 29.15 16.6 30.75 14.35 31.9 12.2 33.25 9.9 33.95 7.9 34.7 5.8 34.7 4.3 34.7 3.1 34.25 2.3
M 41.35 15.35
Q 41.75 14.6 41.75 13.85 41.75 12.9 41.15 12.35 40.7 11.75 39.9 11.75 39.2 11.75 38.5 12 37.8 12.25 37.15 12.7 36.45 13 35.8 13.55 35.15 14.1 34.75 14.6 33.25 16.2 32.3 18.4 31.45 20.5 31.45 22.85 31.45 23.6 31.55 24.4 31.7 25.4 32.05 26.2 32.35 26.95 32.95 27.5 33.55 28 34.45 28 35.25 28 35.95 27.55 36.65 27.1 37.25 26.4 37.95 25.7 38.5 24.85 39 23.95 39.35 23.35
L 39.4 23.2
Q 39.4 22.9 39.25 22.85 39.05 22.7 38.9 22.7 38.7 22.7 38.65 22.85
L 38.3 23.3
Q 38.2 23.5 38.1 23.7 37.55 24.5 36.9 25.3 36.3 26.05 35.45 26.5 35.3 26.6 35.05 26.75 34.9 26.8 34.65 26.8 34.05 26.8 33.65 26.45 33.35 26.05 33.05 25.5 32.85 24.9 32.8 24.3 32.7 23.7 32.7 23.2 32.7 21.65 33.25 20.15 33.65 18.65 34.55 17.3 35.35 16 36.45 15 37.6 14 38.95 13.5
L 39.35 13.4
Q 39.5 13.3 39.65 13.3 40.1 13.3 40.1 13.75 40.1 14.4 39.6 15.2 39.05 16 38.35 16.7 37.65 17.45 36.95 18.05 36.3 18.65 35.7 19 35.45 19.15 35.1 19.3 34.75 19.55 34.45 19.6 34.3 19.6 34.2 19.6 34.1 19.6 34.05 19.6 33.65 19.7 33.65 20.15 33.65 20.5 33.95 20.5 34.2 20.65 34.45 20.65 35.5 20.65 36.4 20.1 37.2 19.6 38.15 19 38.65 18.6 39.35 18 39.95 17.45 40.45 16.75 41 16.1 41.35 15.35
M 51.25 0.7
Q 51.1 0.7 51 0.7 49.85 1.85 48.85 3.2 47.8 4.55 47.05 6.05 46.15 7.6 45.55 9.1 44.85 10.7 44.35 12.25 43.45 15.05 42.8 17.95 42.05 20.8 42.05 23.8 42.05 25.5 42.45 27.3 42.35 27.4 42.35 27.55 42.35 27.9 42.55 28 42.55 28.4 42.95 28.4 43.1 28.4 43.25 28.25 43.4 28 43.4 27.9
L 43.4 27.8
Q 45.95 26.3 48.05 24.1 50.2 21.85 51.75 19.2 52.15 18.4 52.45 17.5 52.6 16.6 52.6 15.7 52.6 14.6 52.25 13.6 51.9 12.7 51 12.1
L 50.6 11.9
Q 50.3 11.75 50.2 11.7 50.15 11.7 49.85 11.7 48.5 11.7 47.35 12.35 46.3 13 45.35 14 45.95 12.05 46.6 10.45 47.3 8.9 48.05 7.4 48.8 6 49.75 4.55
L 51.65 1.4
Q 51.75 1.3 51.75 1.15 51.75 1 51.6 0.85 51.45 0.7 51.25 0.7
M 48.35 13.3
Q 48.95 13 49.6 13 50.15 13 50.35 13.3 50.7 13.55 50.9 13.9 51 14.35 51.2 14.8 51.3 15.35 51.3 15.7 51.3 16.6 50.9 17.65 50.35 18.6 49.75 19.6 48.95 20.7 48.15 21.65 47.15 22.7 46.4 23.5 45.3 24.6 44.7 25.2
L 43.2 26.5
Q 43.15 25.7 43.15 24.9 43.15 22.6 43.6 20.35 44.1 18.1 44.8 15.9
L 45.85 14.95
Q 46.4 14.45 47.05 14 47.7 13.55 48.35 13.3
M 69.45 11.15
Q 69.45 10.9 69.35 10.8 69.15 10.6 68.95 10.6 68.8 10.6 68.7 10.8 67.95 11.75 67.45 13 66.85 14.3 66.4 15.65 65.95 17 65.6 18.4 65.25 19.8 65.05 21.05 64.85 21.8 64.7 22.7 64.55 23.6 64.55 24.35
L 64.55 25.45
Q 64.55 26.35 64.85 26.9 65.1 27.5 65.85 27.9 66.8 27.7 67.5 27.3 68.15 26.9 68.7 26.3 69.3 25.7 69.8 25 70.35 24.25 70.85 23.65 70.9 23.5 70.9 23.35 70.9 23.2 70.75 23.1 70.55 22.9 70.45 22.9 70.3 22.9 69.8 23.4 69.45 23.8 68.7 24.6 68.05 25.3 67.45 25.85 66.75 26.4 66.15 26.5 65.9 26.45 65.9 26.15
L 65.85 25.55
Q 65.85 23.8 66.3 22 66.65 20.2 67.25 18.3 67.7 16.6 68.35 14.6 68.95 13 69.45 11.2
L 69.45 11.15
M 64.9 12.35
Q 65.25 12.3 65.25 11.9 65.25 11.75 65.15 11.5 65.1 11.45 64.9 11.45 62.6 11.45 60.4 12.25 58.15 13 56.55 14.8 56.05 15.3 55.7 16 55.5 16.6 55.5 17.4 55.5 18.1 55.7 18.55 56.15 19 56.6 19.25 57.1 19.55 57.7 19.75 58.1 19.9 58.65 20.2 59.2 20.4 59.5 20.75 59.85 21.1 59.85 21.65
L 59.85 21.95
Q 59.85 22.75 59.55 23.5 59.3 24.25 58.7 24.85 58.15 25.45 57.45 25.8 56.85 26.15 56.05 26.15 55.2 26.15 54.75 25.6 54.1 25.15 53.75 24.4 53.35 23.65 53.3 22.8 53.1 21.9 53.1 21.2 53.1 21.05 52.95 20.9 52.75 20.75 52.6 20.75 52.45 20.75 52.35 21 52.15 21.2 52.1 21.5 52.05 21.7 52.05 22.1
L 52.05 22.55
Q 52.05 23.5 52.35 24.4 52.5 25.4 53.1 26.15 53.65 26.8 54.4 27.35 55.1 27.8 56.15 27.8 57.2 27.8 58.1 27.35 59.1 26.8 59.8 26 60.5 25.25 60.95 24.2 61.3 23.15 61.3 21.95 61.3 21 60.95 20.35 60.65 19.75 60.15 19.3 59.65 18.95 59.05 18.7
L 57.95 18.3
Q 57.4 18.1 57.1 17.95 56.75 17.75 56.75 17.45 56.75 16.9 56.95 16.5 57.1 16 57.4 15.7 58.6 14.45 59.95 13.75 61.5 12.95 63 12.6
L 63.7 12.5
Q 64 12.4 64.4 12.4 64.5 12.4 64.65 12.4 64.8 12.4 64.9 12.35
M 70.9 4.25
L 71 4.15
Q 71.1 3.85 71.1 3.7 71.1 3.4 70.9 3.2 70.65 2.95 70.4 2.95 69.75 2.95 69.65 3.3 69.5 3.65 69.5 4.2 69.5 4.55 69.8 4.75 70.05 5 70.3 5 70.65 5 70.7 4.8 70.85 4.6 71 4.55 71 4.3 70.9 4.25
M 88.2 0.4
Q 88.2 0.3 88 0.1 87.8 0 87.75 0 87.45 0 87.35 0.2 87.2 0.6 87.1 1 87.05 1.3 86.9 1.75 86.65 2.5 86.35 3.55
L 85.75 5.35
Q 84.15 10.7 82.55 16 81.95 18.4 80.8 22.1 80.45 23.15 80.2 24.2
L 80.1 24.2
Q 80.05 24.2 79.5 24.6 78.9 25 78.2 25.55 77.5 26.05 76.7 26.5 75.85 26.95 75.3 26.95 74.7 26.95 74.4 26.6 74.05 26.35 74 25.85 73.9 25.4 73.85 24.85
L 73.85 23.8
Q 73.85 22.1 74.1 20.35 74.45 18.65 74.8 17.05 75.75 13.3 77.1 9.7 78.45 6.35 79.7 2.65
L 79.85 2.5
Q 79.85 2.2 79.6 2.15 79.5 2 79.35 2 79.05 2 78.95 2.2 78.6 2.7 78.35 3.25
L 77.8 4.3
Q 76.3 7.25 75.25 10.3 74.1 13.5 73.5 16.6 73.15 18.1 72.8 20 72.45 21.65 72.45 23.35 72.45 24.1 72.5 24.95 72.6 25.8 72.9 26.5 73.15 27.25 73.65 27.7 74.1 28.25 75.1 28.25 75.75 28.25 76.45 27.9 77.2 27.55 77.9 27.05 78.7 26.5 79.35 25.9 79.6 25.75 79.85 25.55 79.5 26.8 79.25 28.15 79.25 28.25 79.15 28.45
L 78.95 29.5
Q 78.95 29.7 79.15 29.8 79.35 30 79.4 30 79.7 30 79.85 29.8 80.1 29.15 80.4 28.4
L 80.9 27
Q 81.65 25 82.2 23.05
L 83.25 18.95 83.55 18.7
Q 84.3 19.3 84.7 20.3 85.25 21.25 85.5 22.3 85.85 23.3 86.2 24.5 86.45 25.55 87 26.45 87.4 27.35 88.05 27.85 88.8 28.4 89.95 28.4 90.35 28.4 90.85 28.3 91.4 28.15 91.8 28 92 27.95 92 27.7 92 27.55 91.9 27.35 91.65 27.1 91.6 27.1 91.3 27.1 91 27.25 90.8 27.3 90.35 27.3 89.95 27.3 89.5 27.1 89.05 27 88.6 26.6 88.2 26.15 87.9 25.4 87.7 24.7 87.45 23.9 87.3 23.3 87.05 22.2 86.9 21.25 86.6 20.5 86.25 19.7 85.85 19.1 85.35 18.4 84.65 18.05 85.6 17.4 86.25 16.9 87.1 16.3 87.85 15.6 88.6 14.95 89.45 14.05 90.2 13.25 90.65 12.2
L 90.8 11.8
Q 90.85 11.45 90.85 11.4 90.85 11.35 90.6 11.15 90.3 10.9 90.25 10.9 90.2 10.9 90.15 10.9
L 90.1 11
Q 89.2 11.75 88.5 12.7 87.75 13.75 87 14.45 86.25 15.05 85.35 15.95
L 83.75 17.3
Q 85 12.7 86.05 8.9 87.15 4.8 88.2 0.5
L 88.2 0.4 Z"/>
</g>

<g id="icon_logo_0_Layer0_0_FILL">
<path fill="#FFFFFF" fill-opacity="0" stroke="none" d="
M 92 30
L 92 0 0 0 0 30 92 30 Z"/>
</g>

<g id="icon_logout_0_Layer1_0_FILL">
<path fill="#FFFFFF" fill-opacity="0" stroke="none" d="
M 15 15
L 15 0 0 0 0 15 15 15 Z"/>
</g>

<g id="icon_logout_0_Layer0_0_FILL">
<path fill="#FFFFFF" stroke="none" d="
M 8 0
L 7 0
Q 3.78203125 2.49765625 0 4 2.6984375 13.0283203125 7 15
L 8 15
Q 12.2927734375 13.3693359375 15 4 11.1759765625 2.434375 8 0
M 7 3
L 8 3 8 9 7.5 12.3 7 9 7 3 Z"/>
</g>

<g id="iconMoveFolder_0_Layer1_0_FILL">
<path fill="#FFFFFF" fill-opacity="0" stroke="none" d="
M 31 -4
L 0 -4 0 21 31 21 31 -4 Z"/>
</g>

<g id="iconMoveFolder_0_Layer0_0_FILL">
<path fill="#FFFFFF" stroke="none" d="
M 24.95 13
L 24.95 16.5 30.95 10.5 24.95 4.5 24.95 8 14 8 14 13 24.95 13
M 22 18
L 22 14 20 14 20 16 2 16 2 2 8 2 10 5 20 5 20 7 22 7 22 3 11 3 9 0 0 0 0 18 22 18 Z"/>
</g>

<g id="icon_openwindow_0_Layer1_0_FILL">
<path fill="#FFFFFF" fill-opacity="0" stroke="none" d="
M 15 4.95
L 0 4.95 0 15 15 15 15 4.95
M 0 0
L 0 4.95 15 4.95 15 0 0 0 Z"/>
</g>

<g id="icon_openwindow_0_Layer0_0_FILL">
<path fill="#FFFFFF" stroke="none" d="
M 11 4
L 11 1 0 1 0 13 11 13 11 10 10 10 10 12 1 12 1 2 10 2 10 4 11 4
M 12 2
L 12 5 11 5
Q 6.166015625 5.162890625 6.05 7.35 5.9396484375 9.54609375 9 11 6.1197265625 7.271875 11 7
L 12 7 12 10 15 6 12 2 Z"/>
</g>

<g id="icon_options_0_Layer1_0_FILL">
<path fill="#FFFFFF" fill-opacity="0" stroke="none" d="
M 0 0
L 0 25 25 25 25 0 0 0 Z"/>
</g>

<g id="icon_options_0_Layer0_0_FILL">
<path fill="#FFFFFF" stroke="none" d="
M 21.35 9.1
L 23.25 8.3
Q 24 7.95 23.7 7.15
L 23.3 6.15
Q 23 5.15 22.2 5.45
L 19.9 6.5
Q 19.5 6 19.05 5.55 17.9 4.4 16.5 3.7
L 17.3 1.75
Q 17.6 1 16.75 0.6
L 15.75 0.2
Q 14.85 -0.3 14.45 0.5
L 13.55 2.9
Q 12.95 2.8 12.35 2.8 10.65 2.8 9.15 3.35
L 8.35 1.4
Q 8 0.65 7.2 0.95
L 6.2 1.35
Q 5.2 1.65 5.5 2.45
L 6.55 4.8
Q 6.05 5.15 5.65 5.55 4.4 6.8 3.75 8.25
L 1.75 7.4
Q 1 7.1 0.6 7.95
L 0.2 8.95
Q -0.3 9.85 0.5 10.25
L 2.9 11.2
Q 2.85 11.7 2.85 12.3 2.85 14 3.4 15.5
L 1.4 16.3
Q 0.65 16.65 0.95 17.45
L 1.35 18.45
Q 1.65 19.45 2.45 19.15
L 4.9 18.1
Q 5.25 18.55 5.65 18.95 6.85 20.2 8.3 20.9
L 7.45 22.9
Q 7.15 23.65 8 24.05
L 9 24.45
Q 9.9 24.95 10.3 24.15
L 11.25 21.75
Q 11.8 21.8 12.35 21.8 14.1 21.8 15.6 21.3
L 16.4 23.25
Q 16.75 24 17.55 23.7
L 18.55 23.3
Q 19.55 23 19.25 22.2
L 18.2 19.8
Q 18.65 19.4 19.05 19
L 19.1 18.95
Q 20.25 17.8 20.95 16.45
L 22.9 17.25
Q 23.65 17.55 24.05 16.7
L 24.45 15.7
Q 24.95 14.8 24.15 14.4
L 21.8 13.5
Q 21.85 12.9 21.85 12.3 21.85 10.6 21.35 9.1
M 17.65 6.95
Q 19.9 9.15 19.9 12.3 19.9 15.4 17.65 17.55 15.5 19.8 12.35 19.8 9.25 19.8 7.05 17.55 4.85 15.4 4.85 12.3 4.85 9.2 7.05 7
L 7.1 6.95
Q 9.3 4.75 12.35 4.75 15.5 4.75 17.65 6.95 Z"/>
</g>

<g id="icon_pages_0_Layer2_0_FILL">
<path fill="#FFFFFF" fill-opacity="0" stroke="none" d="
M 0 0
L 0 36 36 36 36 0 0 0 Z"/>
</g>

<g id="icon_pages_0_Layer1_0_FILL">
<path fill="#FFFFFF" stroke="none" d="
M 27.75 4.05
L 26.6 3.75 26.75 3.75 15.8 0 0 19.05 3.5 20.2 21.1 26.25 29.9 15.6 31.25 14.05 27.75 4.05 Z"/>

<path fill="#FFFFFF" fill-opacity="0.8" stroke="none" d="
M 30.15 20.7
L 31.25 19.4 29.9 15.6 21.1 26.25 3.5 20.2 0 24.4 2.85 25.4 21.1 31.6 30.15 20.7 Z"/>

<path fill="#FFFFFF" fill-opacity="0.45098039215686275" stroke="none" d="
M 31.25 23.85
L 30.15 20.7 21.1 31.6 2.85 25.4 0 28.8 21.1 36 31.25 23.85 Z"/>
</g>

<g id="icon_pages_0_Layer0_0_FILL">
<path fill="#CCCCCC" fill-opacity="0.4980392156862745" stroke="none" d="
M 31.25 14.05
L 27.75 4.05 22.55 10.8 31.25 14.05 Z"/>
</g>

<g id="icon_panel_0_Layer1_0_FILL">
<path fill="#FFFFFF" fill-opacity="0" stroke="none" d="
M 0 0
L 0 20 20 20 20 0 0 0 Z"/>
</g>

<g id="icon_panel_0_Layer0_0_FILL">
<path fill="#FFFFFF" stroke="none" d="
M 15 20
L 15 19 13 19 13 20 15 20
M 20 15
L 20 13 19 13 19 15 20 15
M 20 17
L 19 17 19 19 17 19 17 20 20 20 20 17
M 9 19
L 9 20 11 20 11 19 9 19
M 5 19
L 5 20 7 20 7 19 5 19
M 1 15
L 1 13 0 13 0 15 1 15
M 1 17
L 0 17 0 20 3 20 3 19 1 19 1 17
M 1 9
L 0 9 0 11 1 11 1 9
M 3 1
L 3 0 0 0 0 3 1 3 1 1 3 1
M 1 5
L 0 5 0 7 1 7 1 5
M 7 1
L 7 0 5 0 5 1 7 1
M 20 9
L 19 9 19 11 20 11 20 9
M 15 1
L 15 0 13 0 13 1 15 1
M 11 1
L 11 0 9 0 9 1 11 1
M 20 3
L 20 0 17 0 17 1 19 1 19 3 20 3
M 20 5
L 19 5 19 7 20 7 20 5 Z"/>
</g>

<g id="iconPanelBook_0_Layer1_0_FILL">
<path fill="#FFFFFF" fill-opacity="0" stroke="none" d="
M 32.05 0
L 0 0 0 32 32.05 32 32.05 0 Z"/>
</g>

<g id="iconPanelBook_0_Layer0_0_FILL">
<path fill="#FFFFFF" stroke="none" d="
M 32 29
L 32 2
Q 25 -1.95 17 2
L 17 29
Q 25 25.05 32 29
M 17 30
L 17 32
Q 25 28.05 32 32
L 32 30
Q 25 26.05 17 30
M 0 32
Q 8 28.05 15 32
L 15 30
Q 8 26.05 0 30
L 0 32
M 15 2
Q 8 -1.95 0 2
L 0 29
Q 8 25.05 15 29
L 15 2 Z"/>
</g>

<g id="iconPanelGrid_0_Layer1_0_FILL">
<path fill="#FFFFFF" fill-opacity="0" stroke="none" d="
M 0 0
L 0 32 32.05 32 32.05 0 0 0 Z"/>
</g>

<g id="iconPanelGrid_0_Layer0_0_FILL">
<path fill="#FFFFFF" stroke="none" d="
M 21 22
L 11 22 11 32 21 32 21 22
M 10 22
L 0 22 0 32 10 32 10 22
M 0 0
L 0 10 10 10 10 0 0 0
M 10 11
L 0 11 0 21 10 21 10 11
M 32 22
L 22 22 22 32 32 32 32 22
M 21 21
L 21 11 11 11 11 21 21 21
M 32 11
L 22 11 22 21 32 21 32 11
M 21 10
L 21 0 11 0 11 10 21 10
M 32 10
L 32 0 22 0 22 10 32 10 Z"/>
</g>

<g id="iconPanelRows_0_Layer1_0_FILL">
<path fill="#FFFFFF" fill-opacity="0" stroke="none" d="
M 32.05 0
L 0 0 0 32 32.05 32 32.05 0 Z"/>
</g>

<g id="iconPanelRows_0_Layer0_0_FILL">
<path fill="#FFFFFF" stroke="none" d="
M 32 32
L 32 22 0 22 0 32 32 32
M 32 21
L 32 11 0 11 0 21 32 21
M 32 10
L 32 0 0 0 0 10 32 10 Z"/>
</g>

<g id="iconPanelSlideshow_0_Layer1_0_FILL">
<path fill="#FFFFFF" fill-opacity="0" stroke="none" d="
M 32.05 0
L 0 0 0 32 32.05 32 32.05 0 Z"/>
</g>

<g id="iconPanelSlideshow_0_Layer0_0_FILL">
<path fill="#FFFFFF" stroke="none" d="
M 32 32
L 32 0 0 0 0 32 32 32
M 24 9
L 31 16 24 23 23 22 29 16 23 10 24 9
M 1 16
L 8 9 9 10 3 16 9 22 8 23 1 16 Z"/>
</g>

<g id="icon_photos_0_Layer1_0_FILL">
<path fill="#FFFFFF" fill-opacity="0" stroke="none" d="
M 36 0
L 0 0 0 36 36 36 36 0 Z"/>
</g>

<g id="icon_photos_0_Layer0_0_FILL">
<path fill="#FFFFFF" stroke="none" d="
M 25.05 1.15
Q 23.9 0 22.25 0
L 13.85 0
Q 12.2 0 11 1.15 9.85 2.35 9.85 4 9.85 4.1 9.85 4.2
L 7 4.2
Q 0 4.2 0 11.1
L 0 24.3
Q 0 31.2 7 31.2
L 29 31.2
Q 36 31.2 36 24.3
L 36 11.1
Q 36 4.2 29 4.2
L 26.25 4.2
Q 26.25 4.1 26.25 4 26.25 2.35 25.05 1.15
M 31.5 10.5
Q 30.9 10.5 30.45 10.05 30.05 9.65 30.05 9.05 30.05 8.45 30.45 8 30.9 7.6 31.5 7.6 32.1 7.6 32.5 8 32.95 8.45 32.95 9.05 32.95 9.65 32.5 10.05 32.1 10.5 31.5 10.5
M 27.1 17.25
Q 27.1 21 24.4 23.65 21.75 26.35 18 26.35 14.25 26.35 11.55 23.65 8.9 21 8.9 17.25 8.9 13.5 11.55 10.8 14.25 8.15 18 8.15 21.75 8.15 24.4 10.8 27.1 13.5 27.1 17.25
M 23.15 22.4
Q 25.35 20.3 25.35 17.25 25.35 14.2 23.15 12.05 21.05 9.9 18 9.9 14.95 9.9 12.8 12.05 10.65 14.2 10.65 17.25 10.65 20.3 12.8 22.4 14.95 24.6 18 24.6 21.05 24.6 23.15 22.4
M 22.45 12.75
Q 24.35 14.65 24.35 17.25 24.35 19.85 22.45 21.7 20.6 23.6 18 23.6 15.4 23.6 13.5 21.7 11.65 19.85 11.65 17.25 11.65 14.65 13.5 12.75 15.4 10.9 18 10.9 20.6 10.9 22.45 12.75 Z"/>
</g>

<g id="Layer1_0_FILL">
<path fill="#FFFFFF" fill-opacity="0" stroke="none" d="
M 0 0
L 0 25 25 25 25 0 0 0 Z"/>
</g>

<g id="Layer0_0_FILL">
<path fill="#FFFFFF" fill-opacity="0.9882352941176471" stroke="none" d="
M 24 13
L 24 11 13 11 13 0 11 0 11 11 0 11 0 13 11 13 11 24 13 24 13 13 24 13 Z"/>
</g>

<g id="icon_position_0_Layer0_0_FILL">
<path fill="#FFFFFF" fill-opacity="0.9882352941176471" stroke="none" d="
M 3 3
L 3 16 19 16 19 3 3 3
M 17 5
L 17 14 5 14 5 5 17 5
M 1 18
L 1 14 0 14 0 19 5 19 5 18 1 18
M 5 0
L 0 0 0 5 1 5 1 1 5 1 5 0
M 21 1
L 21 5 22 5 22 0 17 0 17 1 21 1
M 22 19
L 22 14 21 14 21 18 17 18 17 19 22 19 Z"/>
</g>

<g id="icon_publish_0_Layer1_0_FILL">
<path fill="#FFFFFF" stroke="none" d="
M 15 15
L 15 13 10 15 15 15
M 7 3
L 0 3 0 15 7 15 7 3
M 15 12
L 15 0 8 3 8 15 15 12 Z"/>
</g>

<g id="icon_publish_0_Layer0_0_FILL">
<path fill="#FFFFFF" fill-opacity="0" stroke="none" d="
M 15 0
L 0 0 0 15 15 15 15 0 Z"/>
</g>

<g id="iconRemove_0_Layer1_0_FILL">
<path fill="#FFFFFF" fill-opacity="0" stroke="none" d="
M 0 0
L 0 25 25 25 25 0 0 0 Z"/>
</g>

<g id="iconRemove_0_Layer0_0_FILL">
<path fill="#FFFFFF" stroke="none" d="
M 25 5
L 21 0 12.5 8.5 4 0 0 5 8 13 0 21 5 25 12.5 17.5 15 20
Q 19.35 24 25 25 24.2 21 21 17
L 17 13 25 5 Z"/>
</g>

<g id="icon_resize_0_Layer1_0_FILL">
<path fill="#FFFFFF" fill-opacity="0" stroke="none" d="
M 10 0
L 0 0 0 10 10 10 10 0 Z"/>
</g>

<g id="icon_resize_0_Layer0_0_FILL">
<path fill="#FFFFFF" stroke="none" d="
M 10 10
L 10 8 8 10 10 10
M 10 6
L 10 4 4 10 6 10 10 6
M 10 2
L 10 0 0 10 2 10 10 2 Z"/>
</g>

<g id="iconSave_0_Layer0_0_FILL">
<path fill="#FFFFFF" stroke="none" d="
M 8 16
L 8 21 17 21 17 16 8 16
M 9 20
L 9 17 11 17 11 20 9 20
M 18 12
L 18 4 7 4 7 12 18 12
M 21 21
L 21 4 19 4 19 13 6 13 6 4 4 4 4 21 7 21 7 15 18 15 18 21 21 21 Z"/>
</g>

<g id="iconScreenCell_0_Layer1_0_FILL">
<path fill="#FFFFFF" fill-opacity="0" stroke="none" d="
M 33 0
L 0 0 0 25 33 25 33 0 Z"/>
</g>

<g id="iconScreen_4_Layer0_0_FILL">
<path fill="#FFFFFF" stroke="none" d="
M 23 21.2
L 23 4
Q 23 0.25 19.45 0.05 19.25 0.05 19.05 0.05
L 13.95 0.05
Q 10 0.05 10 4
L 10 21.2
Q 10 25.15 13.95 25.15
L 19.45 25.15
Q 23 24.95 23 21.2
M 21 3
L 21 14
Q 21 15 20 15
L 13 15
Q 12 15 12 14
L 12 3
Q 12 2 13 2
L 20 2
Q 21 2 21 3
M 17.2 17.3
Q 17.5 17.6 17.5 18 17.5 18.4 17.2 18.7 16.9 19 16.5 19 16.1 19 15.8 18.7 15.5 18.4 15.5 18 15.5 17.6 15.8 17.3 16.1 17 16.5 17 16.9 17 17.2 17.3
M 19.5 17
Q 19.9 17 20.2 17.3 20.5 17.6 20.5 18 20.5 18.4 20.2 18.7 19.9 19 19.5 19 19.1 19 18.8 18.7 18.5 18.4 18.5 18 18.5 17.6 18.8 17.3 19.1 17 19.5 17
M 12.8 17.3
Q 13.1 17 13.5 17 13.9 17 14.2 17.3 14.5 17.6 14.5 18 14.5 18.4 14.2 18.7 13.9 19 13.5 19 13.1 19 12.8 18.7 12.5 18.4 12.5 18 12.5 17.6 12.8 17.3
M 14.2 20.3
Q 14.5 20.6 14.5 21 14.5 21.4 14.2 21.7 13.9 22 13.5 22 13.1 22 12.8 21.7 12.5 21.4 12.5 21 12.5 20.6 12.8 20.3 13.1 20 13.5 20 13.9 20 14.2 20.3
M 18.8 20.3
Q 19.1 20 19.5 20 19.9 20 20.2 20.3 20.5 20.6 20.5 21 20.5 21.4 20.2 21.7 19.9 22 19.5 22 19.1 22 18.8 21.7 18.5 21.4 18.5 21 18.5 20.6 18.8 20.3
M 15.8 20.3
Q 16.1 20 16.5 20 16.9 20 17.2 20.3 17.5 20.6 17.5 21 17.5 21.4 17.2 21.7 16.9 22 16.5 22 16.1 22 15.8 21.7 15.5 21.4 15.5 21 15.5 20.6 15.8 20.3 Z"/>
</g>

<g id="iconScreenDesktop_0_Layer1_0_FILL">
<path fill="#FFFFFF" fill-opacity="0" stroke="none" d="
M 33 0
L 0 0 0 25 33 25 33 0 Z"/>
</g>

<g id="iconScreenDesktop_0_Layer0_0_FILL">
<path fill="#FFFFFF" stroke="none" d="
M 33 3.95
Q 33 0 29.05 0
L 3.95 0
Q 0 0 0 3.95
L 0 21.05
Q 0 25 3.95 25
L 29.05 25
Q 33 25 33 21.05
L 33 3.95
M 30.35 19.7
Q 30.35 22.35 27.7 22.35
L 5.3 22.35
Q 2.65 22.35 2.65 19.7
L 2.65 5.3
Q 2.65 2.65 5.3 2.65
L 27.7 2.65
Q 30.35 2.65 30.35 5.3
L 30.35 19.7 Z"/>
</g>

<g id="iconScreenHd_0_Layer1_0_FILL">
<path fill="#FFFFFF" fill-opacity="0" stroke="none" d="
M 33 0
L 0 0 0 25 33 25 33 0 Z"/>
</g>

<g id="iconScreenHd_0_Layer0_0_FILL">
<path fill="#FFFFFF" stroke="none" d="
M 33 3.95
L 32.75 2.25
Q 32 0 29.05 0
L 3.95 0
Q 1 0 0.25 2.25
L 0 3.95 0 20.9
Q 0 21 0 21.05 0 25 3.95 25
L 29.05 25
Q 33 25 33 21.05 33 21 33 20.9
L 33 3.95
M 27.7 2.7
Q 29.65 2.7 30.2 4.15
L 30.35 5.25 30.35 19.6
Q 30.35 19.7 30.35 19.75 30.25 22.2 27.7 22.2
L 5.3 22.2
Q 2.75 22.2 2.65 19.75 2.65 19.7 2.65 19.6
L 2.65 5.25 2.85 4.15
Q 3.35 2.7 5.3 2.7
L 27.7 2.7
M 28 6.35
Q 28 5 26.65 5
L 6.35 5
Q 5 5 5 6.35
L 5 18.65
Q 5 20 6.35 20
L 26.65 20
Q 28 20 28 18.65
L 28 6.35
M 23.9 7.85
Q 24.35 8.05 24.75 8.35 25.15 8.7 25.45 9.2 25.7 9.65 25.85 10.3 26 10.9 26 11.6 26 13.15 25.4 14.4 24.8 15.6 23.9 16.35 23.2 16.9 22.1 17.1 21.5 17.3 20.2 17.3
L 16.75 17.3 18.75 7.6 21.45 7.6
Q 22.5 7.6 22.8 7.65 23.4 7.7 23.9 7.85
M 10.25 11.35
L 14 11.35 14.75 7.6 16.8 7.6 14.85 16.95 14.8 16.95 14.75 17.3 12.75 17.3 13.65 12.95 9.9 12.95 9 17.3 7 17.3 9 7.6 11.05 7.6 10.25 11.35
M 23.95 11.55
Q 23.95 10.5 23.7 10 23.35 9.5 22.85 9.35 22.5 9.2 21.6 9.2
L 20.45 9.2 19.1 15.7 20.05 15.7
Q 21.2 15.7 21.7 15.6 22.15 15.5 22.6 15.1 23.2 14.5 23.55 13.65 23.95 12.75 23.95 11.55 Z"/>
</g>

<g id="iconScreenMobile_0_Layer1_0_FILL">
<path fill="#FFFFFF" fill-opacity="0" stroke="none" d="
M 33 0
L 0 0 0 25 33 25 33 0 Z"/>
</g>

<g id="iconScreenMobile_0_Layer0_0_FILL">
<path fill="#FFFFFF" stroke="none" d="
M 22.45 -0.05
L 10.65 -0.05
Q 10.2693359375 -0.05 9.95 0 8 0.0279296875 8 2
L 8 23
Q 8 25 10 25
L 23 25
Q 25 25 25 23
L 25 2
Q 25 0.0822265625 23.15 0 22.8345703125 -0.05 22.45 -0.05
M 22 2
Q 23 2 23 3
L 23 18.5
Q 23 19.5 22 19.5
L 11 19.5
Q 10 19.5 10 18.5
L 10 3
Q 10 2.8 10.05 2.65 10.2 2 11 2
L 22 2
M 16.8 20.2
Q 17.5 20.2 18.05 20.75 18.6 21.25 18.6 22 18.6 22.7 18.05 23.25 17.5 23.75 16.8 23.75 16.1 23.75 15.55 23.25 15 22.7 15 22 15 21.25 15.55 20.75 16.1 20.2 16.8 20.2 Z"/>
</g>

<g id="iconScreenTablet_0_Layer1_0_FILL">
<path fill="#FFFFFF" fill-opacity="0" stroke="none" d="
M 0 0
L 0 25 33 25 33 0 0 0 Z"/>
</g>

<g id="iconScreenTablet_0_Layer0_0_FILL">
<path fill="#FFFFFF" stroke="none" d="
M 26.05 22
Q 29 22 29 19
L 29 6
Q 29 3 26.05 3
L 7 3
Q 4 3 4 6
L 4 19
Q 4 22 7 22
L 26.05 22
M 27 19
Q 27 20 26 20
L 7 20
Q 6 20 6 19
L 6 6
Q 6 5 7 5
L 26 5
Q 27 5 27 6
L 27 19
M 20.75 9.45
L 21.05 8 14.3 8 14 9.45 16.5 9.45 15 16.6 16.8 16.6 18.25 9.45 20.75 9.45 Z"/>
</g>

<g id="icon_search_0_Layer1_0_FILL">
<path fill="#FFFFFF" fill-opacity="0" stroke="none" d="
M 25 0
L 0 0 0 25 25 25 25 0 Z"/>
</g>

<g id="icon_search_0_Layer0_0_FILL">
<path fill="#FFFFFF" fill-opacity="0.9882352941176471" stroke="none" d="
M 25 9.5
Q 25 5.6 22.2 2.8 19.4 0 15.5 0 11.6 0 8.8 2.8 6 5.6 6 9.5 6 12.3 7.45 14.55
L 0 22 2.8 24.85 10.25 17.4
Q 12.55 19 15.5 19 19.4 19 22.2 16.25
L 22.25 16.2
Q 25 13.4 25 9.5
M 23.05 9.5
Q 23.05 12.65 20.8 14.8 18.65 17.05 15.5 17.05 12.4 17.05 10.15 14.8 8 12.65 8 9.5 8 6.45 10.15 4.2
L 10.2 4.15
Q 12.45 2 15.5 2 18.65 2 20.8 4.15 23.05 6.4 23.05 9.5 Z"/>
</g>

<g id="icon_settings_0_Layer1_0_FILL">
<path fill="#FFFFFF" fill-opacity="0" stroke="none" d="
M 0 0
L 0 36 36 36 36 0 0 0 Z"/>
</g>

<g id="icon_settings_0_Layer0_0_FILL">
<path fill="#FFFFFF" stroke="none" d="
M 33.4 11.85
Q 34.5 11.45 34.05 10.25
L 33.5 8.85
Q 33.05 7.4 31.85 7.8
L 28.6 9.3
Q 28.05 8.6 27.4 7.95 25.7 6.25 23.7 5.3
L 24.8 2.5
Q 25.2 1.4 24.05 0.85
L 22.65 0.25
Q 21.3 -0.45 20.8 0.65
L 19.45 4.1
Q 18.6 4 17.75 4 15.3 4 13.15 4.75
L 11.95 2
Q 11.55 0.9 10.35 1.35
L 8.95 1.9
Q 7.5 2.35 7.9 3.55
L 9.4 6.85
Q 8.7 7.35 8.1 7.95 6.35 9.75 5.35 11.85
L 2.5 10.65
Q 1.4 10.25 0.85 11.4
L 0.25 12.8
Q -0.45 14.15 0.65 14.65
L 4.2 16.05
Q 4.1 16.8 4.1 17.65 4.1 20.1 4.85 22.2
L 2 23.45
Q 0.9 23.85 1.35 25.05
L 1.9 26.45
Q 2.35 27.9 3.55 27.5
L 7 26
Q 7.5 26.6 8.1 27.2 9.85 29 11.95 30
L 10.75 32.9
Q 10.35 34 11.5 34.55
L 12.9 35.15
Q 14.25 35.85 14.75 34.75
L 16.15 31.2
Q 16.95 31.3 17.75 31.3 20.2 31.3 22.4 30.55
L 23.6 33.4
Q 24 34.5 25.2 34.05
L 26.6 33.5
Q 28.05 33.05 27.65 31.85
L 26.15 28.45
Q 26.8 27.9 27.4 27.3
L 27.45 27.2
Q 29.1 25.55 30.1 23.6
L 32.9 24.75
Q 34 25.15 34.55 24
L 35.15 22.6
Q 35.85 21.25 34.75 20.75
L 31.3 19.4
Q 31.4 18.55 31.4 17.65 31.4 15.2 30.65 13.05
L 33.4 11.85
M 25.35 9.95
Q 28.6 13.15 28.6 17.65 28.6 22.1 25.35 25.2 22.3 28.45 17.75 28.45 13.3 28.45 10.15 25.2 6.95 22.1 6.95 17.65 6.95 13.2 10.15 10.05
L 10.2 9.95
Q 13.35 6.8 17.75 6.8 22.3 6.8 25.35 9.95
M 24.45 10.85
L 24.45 10.8
Q 21.765234375 8.051953125 17.75 8.05 13.8408203125 8.0521484375 11.05 10.85 8.2013671875 13.6916015625 8.2 17.65 8.1947265625 21.5587890625 11 24.3
L 11.05 24.3
Q 13.7892578125 27.1529296875 17.75 27.15 21.7845703125 27.140234375 24.45 24.25
L 24.45 24.3
Q 27.305078125 21.5763671875 27.3 17.65 27.298828125 13.64140625 24.45 10.85
M 23 12.25
L 23.05 12.25
Q 25.3013671875 14.4767578125 25.3 17.65 25.2947265625 20.7236328125 23.05 22.85 23.0373046875 22.9013671875 23 22.9 20.9154296875 25.159375 17.75 25.15 14.628515625 25.146875 12.45 22.9
L 12.45 22.85
Q 10.205078125 20.7236328125 10.2 17.65 10.1986328125 14.5083984375 12.45 12.25 14.6591796875 10.0478515625 17.75 10.05 20.9162109375 10.0478515625 23 12.25 Z"/>

<path fill="#FFFFFF" fill-opacity="0" stroke="none" d="
M 28.6 17.65
Q 28.6 13.15 25.35 9.95 22.3 6.8 17.75 6.8 13.35 6.8 10.2 9.95
L 10.15 10.05
Q 6.95 13.2 6.95 17.65 6.95 22.1 10.15 25.2 13.3 28.45 17.75 28.45 22.3 28.45 25.35 25.2 28.6 22.1 28.6 17.65
M 24.45 10.8
L 24.45 10.85
Q 27.298828125 13.64140625 27.3 17.65 27.305078125 21.5763671875 24.45 24.3
L 24.45 24.25
Q 21.7845703125 27.140234375 17.75 27.15 13.7892578125 27.1529296875 11.05 24.3
L 11 24.3
Q 8.1947265625 21.5587890625 8.2 17.65 8.2013671875 13.6916015625 11.05 10.85 13.8408203125 8.0521484375 17.75 8.05 21.765234375 8.051953125 24.45 10.8
M 23.05 12.25
L 23 12.25
Q 20.9162109375 10.0478515625 17.75 10.05 14.6591796875 10.0478515625 12.45 12.25 10.1986328125 14.5083984375 10.2 17.65 10.205078125 20.7236328125 12.45 22.85
L 12.45 22.9
Q 14.628515625 25.146875 17.75 25.15 20.9154296875 25.159375 23 22.9 23.0373046875 22.9013671875 23.05 22.85 25.2947265625 20.7236328125 25.3 17.65 25.3013671875 14.4767578125 23.05 12.25 Z"/>
</g>

<g id="icon_sourcecode_0_Layer1_0_FILL">
<path fill="#FFFFFF" fill-opacity="0" stroke="none" d="
M 25 25
L 25 0 0 0 0 25 25 25 Z"/>
</g>

<g id="icon_sourcecode_0_Layer0_0_FILL">
<path fill="#FFFFFF" stroke="none" d="
M 25 12.55
Q 25 7.35 21.35 3.7 17.7 0.05 12.5 0.05 7.3 0.05 3.65 3.7 0 7.35 0 12.55 0 17.75 3.65 21.4 7.3 25.05 12.5 25.05 17.7 25.05 21.35 21.4 25 17.75 25 12.55
M 23 11.85
L 23 13.15 15.55 16.35 15.55 15 21.45 12.5 15.55 10.05 15.55 8.7 23 11.85
M 13.6 6.55
L 14.7 6.55 11.4 18.25 10.3 18.25 13.6 6.55
M 9.45 8.7
L 9.45 10.05 3.55 12.5 9.45 15 9.45 16.35 2 13.15 2 11.85 9.45 8.7 Z"/>
</g>

<g id="icon_style_0_Layer0_0_FILL">
<path fill="#FFFFFF" stroke="none" d="
M 1.5 16.55
L 0.5 15.55 0 17 1.5 16.55
M 2.55 12.1
L 1.65 12.05 1.65 12.1 0.6 15.2 1.8 16.4 4.95 15.4 4.95 15.35 5 14.6 4.25 14.6 4.2 13.75 3.35 13.7 3.35 12.85 2.55 12.85 2.55 12.1
M 13.6 6.75
L 10.25 3.4 2.15 11.5 2.15 11.55 3.05 11.65 3 12.4 3.85 12.4 3.85 13.2 4.7 13.25 4.75 14.1 5.45 14.1 5.45 14.85 5.5 14.85 13.6 6.75 Z"/>

<path fill="#FFFFFF" fill-opacity="0.9882352941176471" stroke="none" d="
M 1.65 12.05
L 1.6 12.05 1.65 12.1 1.65 12.05
M 14.45 4.8
L 13.45 5.85 13.95 6.4 15 5.3 14.45 4.8
M 14.2 4.5
L 13.5 3.85 12.5 4.9 13.15 5.6 14.2 4.5
M 11.55 3.95
L 12.2 4.65 13.25 3.55 12.6 2.9 11.55 3.95
M 11.7 2
L 10.6 3.05 11.3 3.7 12.3 2.6 11.7 2
M 15.4 4.95
L 17 3.35
Q 16.55 0.55 13.65 0
L 12.05 1.6 15.4 4.95 Z"/>
</g>

<g id="iconSubMenu_0_Layer1_0_FILL">
<path fill="#FFFFFF" fill-opacity="0" stroke="none" d="
M 24 24
L 24 0 0 0 0 24 24 24 Z"/>
</g>

<g id="iconSubMenu_0_Layer0_0_FILL">
<path fill="#FFFFFF" stroke="none" d="
M 23.65 15
Q 24 13.55 24 12 24 10.45 23.65 9 22.9 5.95 20.5 3.55 18.1 1.1 15 0.35 13.55 0 12 0 10.45 0 9 0.35 5.9 1.15 3.5 3.55 1.1 5.95 0.35 9 0 10.45 0 12 0 13.55 0.35 15 1.1 18.1 3.5 20.5 5.9 22.9 9 23.65 10.45 24 12 24 13.55 24 15 23.65 18.1 22.9 20.5 20.5 22.9 18.1 23.65 15
M 14 7.95
Q 14 7.15 14.55 6.55 15.15 6 16 6 16.85 6 17.4 6.55 18 7.15 18 8 18 8.85 17.4 9.4 16.85 10 15.95 10 15.15 10 14.55 9.4 14 8.85 14 7.95
M 6 8
Q 6 7.15 6.55 6.55 7.15 6 8 6 8.85 6 9.4 6.55 10 7.15 10 8.05 10 8.85 9.4 9.4 8.85 10 7.95 10 7.15 10 6.55 9.4 6 8.85 6 8
M 6.55 17.4
Q 6 16.85 6 16 6 15.15 6.55 14.55 7.15 14 7.95 14 8.85 14 9.4 14.55 10 15.15 10 15.95 10 16.85 9.4 17.4 8.85 18 8 18 7.15 18 6.55 17.4
M 18 16
Q 18 16.85 17.4 17.4 16.85 18 16 18 15.15 18 14.55 17.4 14 16.85 14 16.05 14 15.15 14.55 14.55 15.15 14 16.05 14 16.85 14 17.4 14.55 18 15.15 18 16 Z"/>
</g>

<g id="iconTextBgColor_0_Layer1_0_FILL">
<path fill="#FFFFFF" fill-opacity="0" stroke="none" d="
M 32 0
L 0 0 0 32 32 32 32 0 Z"/>
</g>

<g id="iconTextBgColor_0_Layer0_0_FILL">
<path fill="#FFFFFF" stroke="none" d="
M 32 32
L 32 0 0 0 0 32 32 32
M 24.6 23.2
Q 24.9 24.1 25.15 24.55 25.5 25.25 25.95 25.4 26.2 25.7 26.75 25.8 27.4 26.05 28.45 26.05
L 28.35 26.75
Q 27.3 26.75 26.15 26.75 24.9 26.65 23.55 26.65 22.5 26.65 21.4 26.75 20.45 26.75 19.3 26.75
L 19.2 26.15
Q 20.8 26.05 21.25 25.8 21.95 25.5 21.95 25.05 21.95 24.8 21.8 24.35 21.7 24.2 21.4 23.75
L 19.75 19.1 11.45 19.1 9.7 23.4
Q 9.05 24.55 9.05 25.05 9.05 25.5 9.8 25.7 10.3 26.05 11.9 26.05
L 11.9 26.75
Q 10.95 26.75 9.8 26.75 8.6 26.65 7.45 26.65 6.5 26.65 5.6 26.75 4.7 26.75 3.75 26.75
L 3.75 26.15
Q 4.7 26.05 5.15 25.85 5.6 25.7 6.05 25.4
L 15 5.5 17.7 5.5
Q 17.8 5.6 17.85 5.7
L 24.6 23.2
M 12.2 17.95
L 19.2 17.95 16 9.35 12.2 17.95 Z"/>
</g>

<g id="iconTextBold_0_Layer1_0_FILL">
<path fill="#FFFFFF" fill-opacity="0" stroke="none" d="
M 0 0
L 0 32 32 32 32 0 0 0 Z"/>
</g>

<g id="iconTextBold_0_Layer0_0_FILL">
<path fill="#FFFFFF" stroke="none" d="
M 25.15 11.9
Q 26.35 10.1 26.35 7.9 26.35 6 25.55 4.5 24.75 2.9 23.35 2 21.75 0.9 19.65 0.4 17.65 0 14.85 0 12.55 0 10.45 0.2 8.45 0.4 7.05 0.6
L 7.05 31.6
Q 8.15 31.7 9.75 31.9 11.45 32 13.65 32 17.75 32 20.35 31.3 23.05 30.4 24.65 29 25.95 27.8 26.65 26.1 27.4 24.4 27.4 22.6 27.3 20.5 26.65 19 25.85 17.5 24.45 16.3 23.15 15.3 21.45 14.9
L 21.45 14.7
Q 23.85 13.7 25.15 11.9
M 20.35 19.5
Q 21.15 20.6 21.25 22.4 21.15 24.2 20.35 25.3 19.55 26.3 18.25 27 16.95 27.5 15.35 27.5 14.55 27.5 13.95 27.4 13.35 27.4 12.95 27.3
L 12.95 17.5 15.15 17.5
Q 16.65 17.5 18.05 17.9 19.45 18.4 20.35 19.5
M 17.95 4.9
Q 19.05 5.3 19.75 6.1 20.45 7 20.45 8.6 20.45 10.6 19.05 11.7 17.65 13 15.15 13.1
L 12.95 13.1 12.95 4.7
Q 13.35 4.6 13.95 4.6 14.55 4.5 15.55 4.5 16.85 4.5 17.95 4.9 Z"/>
</g>

<g id="iconTextBullet_0_Layer1_0_FILL">
<path fill="#FFFFFF" fill-opacity="0" stroke="none" d="
M 0 0
L 0 32 32 32 32 0 0 0 Z"/>
</g>

<g id="iconTextBullet_0_Layer0_0_FILL">
<path fill="#FFFFFF" stroke="none" d="
M 30 27
L 30 23 9 23 9 27 30 27
M 30 9
L 30 5 9 5 9 9 30 9
M 30 18
L 30 14 9 14 9 18 30 18
M 6 14
L 2 14 2 18 6 18 6 14
M 6 23
L 2 23 2 27 6 27 6 23
M 6 5
L 2 5 2 9 6 9 6 5 Z"/>
</g>

<g id="iconTextCenter_0_Layer1_0_FILL">
<path fill="#FFFFFF" fill-opacity="0" stroke="none" d="
M 0.05 0
L 0.05 31.95 32 31.95 32 0 0.05 0 Z"/>
</g>

<g id="iconTextCenter_0_Layer0_0_FILL">
<path fill="#FFFFFF" stroke="none" d="
M 29 23
L 3 23 3 27 29 27 29 23
M 23 18
L 23 14 9 14 9 18 23 18
M 30 9
L 30 5 2 5 2 9 30 9 Z"/>
</g>

<g id="iconTextColor_0_Layer1_0_FILL">
<path fill="#FFFFFF" fill-opacity="0" stroke="none" d="
M 0 32
L 32 32 32 0 0 0 0 32 Z"/>
</g>

<g id="iconTextColor_0_Layer0_0_FILL">
<path fill="#FFFFFF" stroke="none" d="
M 19.6 5.4
Q 19.4 4.3 18.95 2.85 18.65 1.75 18.15 0
L 14.5 0 14.65 0.15 3 29.95
Q 2.55 30.4 1.9 30.7 1.25 30.9 0 31.05
L 0 32
Q 1.25 32 2.55 32 3.65 31.85 4.9 31.85 6.35 31.85 7.8 32 9.35 32 10.7 32
L 10.7 30.9
Q 8.6 30.9 7.8 30.4 7 30.05 7 29.45 7 28.7 7.7 26.9
L 10.05 20.45 20.7 20.45 22.95 27.45
Q 23.3 28.05 23.45 28.35 23.55 29.1 23.55 29.45 23.55 30.05 22.75 30.55 22.1 30.9 20.1 31.05
L 20.25 32
Q 21.7 32 22.95 32 24.35 31.85 25.65 31.85 27.4 31.85 29 32 30.55 32 31.85 32
L 32 30.9
Q 30.6 30.9 29.9 30.55 29.15 30.4 28.8 29.95 28.3 29.65 27.75 28.7 27.4 28 27.05 26.6
L 19.6 5.4
M 20.1 18.7
L 10.95 18.7 15.9 5.8 20.1 18.7 Z"/>
</g>

<g id="iconTextIndent_0_Layer1_0_FILL">
<path fill="#FFFFFF" fill-opacity="0" stroke="none" d="
M 0 0
L 0 32 32 32 32 0 0 0 Z"/>
</g>

<g id="iconTextIndent_0_Layer0_0_FILL">
<path fill="#FFFFFF" stroke="none" d="
M 11 20.5
L 2 14 2 27 11 20.5
M 30 23
L 14 23 14 27 30 27 30 23
M 30 18
L 30 14 14 14 14 18 30 18
M 30 9
L 30 5 2 5 2 9 30 9 Z"/>
</g>

<g id="iconTextItalic_0_Layer1_0_FILL">
<path fill="#FFFFFF" fill-opacity="0" stroke="none" d="
M 0 0
L 0 32 32 32 32 0 0 0 Z"/>
</g>

<g id="iconTextItalic_0_Layer0_0_FILL">
<path fill="#FFFFFF" stroke="none" d="
M 26.15 1.65
Q 26.65 1.65 26.9 1.55 26.9 1.35 27 0.95 26.9 0.65 26.75 0.35
L 26.75 0
Q 24.5 0 22.85 0.15 21.25 0.25 19.95 0.25
L 19.9 0.25
Q 18.6 0.25 16.95 0.15 15.3 0 13.95 0 13.8 0.15 13.55 0.65 13.35 1.05 13.2 1.35 13.2 1.55 13.25 1.65 13.25 1.85 13.45 1.85 15.05 1.85 15.85 1.85 16.7 1.95 16.9 2.35 17.2 2.85 17.05 3.65 16.9 4.35 16.45 6.55 15.95 8.75 15.25 11.7 14.55 14.55 13.8 17.8 13.1 20.7 12.4 23.2 11.9 25.6 11.4 26.8 11.1 28.3 10.7 29 10.2 29.8 9.35 30 8.55 30.2 6.75 30.2 6.65 30.2 6.4 30.5 6.15 30.8 6.05 31.6 6 31.7 6.05 31.8 6.05 31.9 6.25 31.9 7.3 31.9 8.8 31.8 10.25 31.7 12.05 31.7 13.35 31.7 14.65 31.8 16.1 31.9 17.05 31.9 18.1 32 18.65 32 18.95 32 19.2 31.9 19.5 31.7 19.8 31.1 19.95 30.5 19.8 30.1
L 19.8 30
Q 19.5 30 18.25 29.9 16.55 29.6 16.35 29 16.15 28.3 16.45 26.9 16.9 24.2 17.55 21.4 18.25 18.55 19.05 15.1 19.9 11.45 21.1 6.45 21.65 4.55 21.95 3.6 22.3 2.7 22.8 2.2 23.05 1.95 24 1.85 24.85 1.65 26.15 1.65 Z"/>
</g>

<g id="iconTextLeft_0_Layer1_0_FILL">
<path fill="#FFFFFF" fill-opacity="0" stroke="none" d="
M 0 0
L 0 32 32 32 32 0 0 0 Z"/>
</g>

<g id="iconTextLeft_0_Layer0_0_FILL">
<path fill="#FFFFFF" stroke="none" d="
M 22 23
L 2 23 2 27 22 27 22 23
M 14 14
L 2 14 2 18 14 18 14 14
M 30 9
L 30 5 2 5 2 9 30 9 Z"/>
</g>

<g id="iconTextLink_0_Layer1_0_FILL">
<path fill="#FFFFFF" fill-opacity="0" stroke="none" d="
M 0 0
L 0 32 32 32 32 0 0 0 Z"/>
</g>

<g id="iconTextLink_0_Layer0_0_FILL">
<path fill="#FFFFFF" stroke="none" d="
M 23.5 14.55
Q 22.95 13.95 22.1 13.95
L 10.1 13.95
Q 9.3 13.95 8.7 14.55 8.1 14.95 8.1 15.55 8.1 16.25 8.7 16.75 9.3 17.25 10.1 17.25
L 22.1 17.25
Q 22.95 17.25 23.5 16.75 24.15 16.25 24.15 15.55 24.15 14.95 23.5 14.55
M 15 11.9
Q 14.7 11.3 14.3 10.8 12.6 9 10.1 9
L 6.1 9
Q 3.45 9 1.7 10.8 1.15 11.4 0.9 12.1 0 13.55 0 15.55 0 17.6 0.9 19.2 1.15 19.7 1.7 20.2 3.45 22.25 6.1 22.25
L 10.1 22.25
Q 12.6 22.25 14.3 20.2 14.7 19.8 15 19.45
L 12.65 18.1
Q 12.5 18.5 12.15 18.7 11.1 20 9.4 20
L 6.7 20
Q 4.95 20 3.8 18.7 3.35 18.4 3.15 18 2.6 16.9 2.6 15.55 2.6 14.25 3.15 13.35 3.35 12.85 3.8 12.45 4.95 11.2 6.7 11.2
L 9.4 11.2
Q 11.1 11.2 12.15 12.45 12.5 12.75 12.65 13.1
L 15 11.9
M 30.35 10.8
Q 28.6 9 26.15 9
L 22.1 9
Q 19.6 9 17.8 10.8 17.4 11.3 17.2 11.9
L 19.5 13.1
Q 19.6 12.75 19.9 12.45 21.15 11.2 22.7 11.2
L 25.4 11.2
Q 27.15 11.2 28.25 12.45 29.4 13.75 29.4 15.55 29.4 17.5 28.25 18.7 27.15 20 25.4 20
L 22.7 20
Q 21.15 20 19.9 18.7 19.6 18.5 19.5 18.2
L 17.2 19.45
Q 17.4 19.8 17.8 20.2 19.6 22.25 22.1 22.25
L 26.15 22.25
Q 28.6 22.25 30.35 20.2 31.7 18.8 32 16.9
L 32 14.45
Q 31.7 12.45 30.35 10.8 Z"/>
</g>

<g id="iconTextMore_0_Layer1_0_FILL">
<path fill="#FFFFFF" fill-opacity="0" stroke="none" d="
M 32 0
L 0 0 0 32 32 32 32 0 Z"/>
</g>

<g id="iconTextMore_0_Layer0_0_FILL">
<path fill="#FFFFFF" stroke="none" d="
M 18.5 25.85
Q 17.5 24.9 16 24.9 14.5 24.9 13.4 25.85 12.45 26.95 12.45 28.45 12.45 29.95 13.4 30.95 14.5 32 16 32 17.5 32 18.5 30.95 19.55 29.95 19.55 28.45 19.55 26.95 18.5 25.85
M 16 19.55
Q 17.5 19.55 18.5 18.5 19.55 17.5 19.55 16 19.55 14.5 18.5 13.4 17.5 12.45 16 12.45 14.5 12.45 13.4 13.4 12.45 14.5 12.45 16 12.45 17.5 13.4 18.5 14.5 19.55 16 19.55
M 16 7.1
Q 17.5 7.1 18.5 6.05 19.55 5.05 19.55 3.55 19.55 2.05 18.5 1 17.5 0 16 0 14.5 0 13.4 1 12.45 2.05 12.45 3.55 12.45 5.05 13.4 6.05 14.5 7.1 16 7.1 Z"/>
</g>

<g id="iconTextNumbers_0_Layer1_0_FILL">
<path fill="#FFFFFF" fill-opacity="0" stroke="none" d="
M 0 0
L 0 32 32 32 32 0 0 0 Z"/>
</g>

<g id="iconTextNumbers_0_Layer0_0_FILL">
<path fill="#FFFFFF" stroke="none" d="
M 32 18
L 32 14 10 14 10 18 32 18
M 2.65 20.8
Q 2.95 21.15 2.95 21.55 2.95 22.05 2.65 22.5 2.4 23 2 23.6 1.5 24.15 0 25
L -0.1 27 5 27 5 25 3 25 2.95 24.8
Q 3.4 24.3 3.85 23.8 4.25 23.25 4.55 22.7 4.8 22.05 4.8 21.35 4.8 20.8 4.55 20.15 4.25 19.65 3.75 19.3 3.1 19.05 2.25 18.95 1.55 19.05 0.95 19.25 0.3 19.4 -0.05 19.65
L 0.4 21.05
Q 0.7 20.8 1.1 20.6 1.5 20.5 1.85 20.5 2.4 20.5 2.65 20.8
M 0.7 7.4
L 2 7 2 13 4 13.05 4 5 2.4 5 0.25 5.95 0.7 7.4
M 10 27
L 32 27 32 23 10 23 10 27
M 32 9
L 32 5 10 5 10 9 32 9 Z"/>
</g>

<g id="iconTextOutdent_0_Layer1_0_FILL">
<path fill="#FFFFFF" fill-opacity="0" stroke="none" d="
M 0 0
L 0 32 32 32 32 0 0 0 Z"/>
</g>

<g id="iconTextOutdent_0_Layer0_0_FILL">
<path fill="#FFFFFF" stroke="none" d="
M 11 14
L 2 20.5 11 27 11 14
M 14 23
L 14 27 30 27 30 23 14 23
M 30 9
L 30 5 2 5 2 9 30 9
M 30 18
L 30 14 14 14 14 18 30 18 Z"/>
</g>

<g id="iconTextPhoto_0_Layer1_0_FILL">
<path fill="#FFFFFF" fill-opacity="0" stroke="none" d="
M 32 0
L 0 0 0 32 32 32 32 0 Z"/>
</g>

<g id="iconTextPhoto_0_Layer0_0_FILL">
<path fill="#FFFFFF" stroke="none" d="
M 30 4.6
L 28.4 2.95 3.85 2.95 2 4.7 2 27.25 3.85 28.95 28.4 28.95 30 27.35 30 4.6
M 27 26
L 5 26 5 6 27 6 27 26
M 25 22.1
L 21.4 18.55 19 21 12 15 7 20 7 24 25 24 25 22.1
M 20.45 15.35
Q 21 14.8 21 13.95 21 13.15 20.45 12.6 19.85 12 19.05 12 18.25 12 17.65 12.6 17 13.15 17 13.95 17 14.8 17.65 15.35 18.25 16 19.05 16 19.85 16 20.45 15.35 Z"/>
</g>

<g id="iconTextRight_0_Layer1_0_FILL">
<path fill="#FFFFFF" fill-opacity="0" stroke="none" d="
M 0 0
L 0 32 32 32 32 0 0 0 Z"/>
</g>

<g id="iconTextRight_0_Layer0_0_FILL">
<path fill="#FFFFFF" stroke="none" d="
M 10 23
L 10 27 30 27 30 23 10 23
M 30 18
L 30 14 18 14 18 18 30 18
M 30 9
L 30 5 2 5 2 9 30 9 Z"/>
</g>

<g id="iconTextSource_0_Layer1_0_FILL">
<path fill="#FFFFFF" fill-opacity="0" stroke="none" d="
M 0 0
L 0 32 32 32 32 0 0 0 Z"/>
</g>

<g id="iconTextSource_0_Layer0_0_FILL">
<path fill="#FFFFFF" stroke="none" d="
M 32 18
L 32 14 19 4 19 8 29.05 15.9 29 16 19 24 19 28 32 18
M 13 24
L 3 16 2.95 15.9 13 8 13 4 0 14 0 18 13 28 13 24 Z"/>
</g>

<g id="iconTextStrikeThru_0_Layer1_0_FILL">
<path fill="#FFFFFF" fill-opacity="0" stroke="none" d="
M 0 0
L 0 32 32 32 32 0 0 0 Z"/>
</g>

<g id="iconTextStrikeThru_0_Layer0_0_FILL">
<path fill="#FFFFFF" stroke="none" d="
M 29 20
L 29 15.85 19.9 15.85
Q 19.1 15.3 18.2 14.8 17.2 14.2 16 13.65 14.1 12.9 12.8 12.1 11.6 11.2 11 10.3 10.35 9.4 10.35 8.1 10.35 7.1 10.85 6.05 11.5 5.15 12.55 4.5 13.8 3.85 15.6 3.85 17.45 3.85 18.85 4.35 20.25 4.75 21 5.4
L 22.1 1.35
Q 21.2 0.9 19.5 0.45 17.9 0 15.65 0 12.55 0 10.35 1.05 8.15 2.2 7 4.05 5.7 6.05 5.7 8.55 5.7 10.7 6.65 12.35 7.5 13.65 8.8 14.8 9.05 15.1 9.35 15.3 9.8 15.6 10 16
L 3 16 3 20 17 20
Q 17.3 19.85 17.3 20 18.6 21.4 18.6 23.3 18.6 25.5 17.05 26.7 15.6 28 12.9 28 11 28 9.2 27.45 7.5 27 6.25 26.2
L 5.2 30.1
Q 5.95 30.7 7.15 31.1 8.25 31.55 9.8 31.8 11.15 32 12.55 32 16.1 32 18.35 30.9 20.8 29.6 22.1 27.6 23.3 25.6 23.3 22.9 23.3 21.25 23 20
L 29 20 Z"/>
</g>

<g id="iconTextTable_0_Layer2_0_FILL">
<path fill="#FFFFFF" fill-opacity="0" stroke="none" d="
M 0 0
L 0 32 32 32 32 0 0 0 Z"/>
</g>

<g id="iconTextTable_0_Layer1_0_FILL">
<path fill="#FFFFFF" stroke="none" d="
M 30 4.6
L 28.4 2.95 3.85 2.95 2 4.7 2 27.25 3.85 28.95 28.4 28.95 30 27.35 30 4.6
M 5 6
L 27 6 27 26 5 26 5 6 Z"/>
</g>

<g id="iconTextTable_0_Layer0_0_FILL">
<path fill="#FFFFFF" stroke="none" d="
M 27 11
L 21 11 21 6 19 6 19 11 13 11 13 6 11 6 11 11 5 11 5 13 11 13 11 19 5 19 5 21 11 21 11 27 13 27 13 21 19 21 19 26 21 26 21 21 27 21 27 19 21 19 21 13 27 13 27 11
M 13 13
L 19 13 19 19 13 19 13 13 Z"/>
</g>

<g id="iconTextUnderline_0_Layer1_0_FILL">
<path fill="#FFFFFF" fill-opacity="0" stroke="none" d="
M 0 0
L 0 32 32 32 32 0 0 0 Z"/>
</g>

<g id="iconTextUnderline_0_Layer0_0_FILL">
<path fill="#FFFFFF" stroke="none" d="
M 25.6 23
Q 27 20.45 27 16.3
L 27 0 22 0 22 17
Q 22.3 20.95 20.7 22.55 19.05 24.15 16 24 13.2 24.15 11.55 22.55 9.85 20.95 10 17
L 10 0 5 0 5 16.4
Q 5 20.55 6.3 23.15 7.7 25.75 10.1 27 11.8 27.75 13.9 28
L 3 28 3 32 29 32 29 28 17.6 28
Q 19.8 27.75 21.6 26.85 24.15 25.7 25.6 23 Z"/>
</g>

<g id="iconTimeline_0_Layer1_0_FILL">
<path fill="#FFFFFF" fill-opacity="0" stroke="none" d="
M 36 0
L 0 0 0 36 36 36 36 0 Z"/>
</g>

<g id="iconTimeline_0_Layer0_0_FILL">
<path fill="#FFFFFF" stroke="none" d="
M 33 18
Q 33 11.8 28.6 7.4 24.2 3 18 3 11.8 3 7.4 7.4 3 11.8 3 18 3 24.2 7.4 28.6 11.65 32.85 17.65 33
L 18.4 33
Q 24.35 32.85 28.6 28.6 33 24.2 33 18
M 26.45 9.5
Q 30 13.05 30 18 30 22.95 26.45 26.45 22.95 30 18 30 13.05 30 9.5 26.45 6 22.95 6 18 6 13.05 9.5 9.5 13.05 6 18 6 22.95 6 26.45 9.5
M 17.95 17.25
Q 17.2 17.25 16.7 17.75 16.2 18.25 16.2 18.95 16.2 19.75 16.7 20.2 17.2 20.7 17.95 20.7 18.65 20.7 19.1 20.2 19.65 19.75 19.65 18.95 19.65 18.25 19.1 17.75 18.65 17.25 17.95 17.25
M 19 9
L 17 9 17 16 19 16 19 9
M 25 20
L 25 18 21 18 21 20 25 20 Z"/>
</g>

<g id="iconUpload_0_Layer1_0_FILL">
<path fill="#FFFFFF" fill-opacity="0" stroke="none" d="
M 25 0
L 0 0 0 25 25 25 25 0 Z"/>
</g>

<g id="iconUpload_0_Layer0_0_FILL">
<path fill="#FFFFFF" stroke="none" d="
M 6.55 14.05
L 10.05 14.05 10.05 25 15.05 25 15.05 14.05 18.55 14.05 12.55 8.05 6.55 14.05
M 23.05 2.05
L 23.05 17.05 16.05 17.05 16.05 19.05 25 19.05 25 0 0 0 0 19.05 9.05 19.05 9.05 17.05 2.05 17.05 2.05 2.05 23.05 2.05 Z"/>
</g>

<g id="icon_users_0_Layer1_0_FILL">
<path fill="#FFFFFF" fill-opacity="0" stroke="none" d="
M 0 0
L 0 36 36 36 36 0 0 0 Z"/>
</g>

<g id="icon_users_0_Layer0_0_FILL">
<path fill="#FFFFFF" stroke="none" d="
M 24.35 11.35
L 23.2 9.7 18.4 13.1 13.2 9.7 12.1 11.4 17.35 14.75 17.35 19.95 19.35 19.95 19.35 14.9 24.35 11.35
M 18.4 22.1
L 18.35 22.1
Q 16.15 22.1 14.5 23.7 12.95 25.35 12.95 27.65 12.95 29.95 14.55 32.9 16.15 35.8 18.35 35.8
L 18.4 35.8
Q 20.7 35.7 22.3 32.85 23.9 29.95 23.95 27.65 23.9 25.35 22.25 23.7 20.7 22.1 18.4 22.1
M 9.35 1.6
Q 7.75 0 5.5 0
L 5.45 0
Q 3.2 0 1.6 1.6 0 3.25 0 5.55 0 7.85 1.65 10.8 3.2 13.7 5.45 13.7
L 5.5 13.7
Q 7.75 13.6 9.4 10.75 10.95 7.85 11 5.55 10.95 3.25 9.35 1.6
M 34.45 10.75
Q 36.05 7.85 36.1 5.55 36.05 3.25 34.4 1.6 32.8 0 30.55 0
L 30.5 0
Q 28.3 0 26.65 1.6 25.1 3.25 25.1 5.55 25.1 7.85 26.7 10.8 28.3 13.7 30.5 13.7
L 30.55 13.7
Q 32.8 13.6 34.45 10.75 Z"/>
</g>

<g id="icon_websites_0_Layer1_0_FILL">
<path fill="#FFFFFF" fill-opacity="0" stroke="none" d="
M 15 0
L 0 0 0 15 15 15 15 0 Z"/>
</g>

<g id="icon_websites_0_Layer0_0_FILL">
<path fill="#FFFFFF" stroke="none" d="
M 0 15
L 15 15 15 0 0 0 0 15
M 1 1
L 14 1 14 14 1 14 1 1
M 3 6.05
L 3 10.05 7 10.05 7 6.05 3 6.05
M 3 11
L 3 11.5 7 11.5 7 11 3 11
M 12 5.1
L 12 3.1 3 3.1 3 5.1 12 5.1 Z"/>

<path fill="#FFFFFF" fill-opacity="0.5019607843137255" stroke="none" d="
M 12 12
L 12 6 8 6 8 12 12 12 Z"/>
</g>

<g id="iconWindowLeftSide_0_Layer0_0_FILL">
<path fill="#FFFFFF" stroke="none" d="
M 14 0
L 0 0 0 14 14 14 14 0
M 13 1
L 13 13 7 13 7 1 13 1 Z"/>
</g>

<g id="iconWindowMaximize_0_Layer0_0_FILL">
<path fill="#FFFFFF" stroke="none" d="
M 0 14
L 14 14 14 0 0 0 0 14 Z"/>
</g>

<g id="iconWindowMinimize_0_Layer1_0_FILL">
<path fill="#FFFFFF" fill-opacity="0" stroke="none" d="
M 14 0
L 0 0 0 14 14 14 14 0 Z"/>
</g>

<g id="iconWindowMinimize_0_Layer0_0_FILL">
<path fill="#FFFFFF" stroke="none" d="
M 0 14
L 14 14 14 0 0 0 0 14
M 1 1
L 13 1 13 13 1 13 1 1
M 4 9
L 10 9 10 3 4 3 4 9 Z"/>
</g>

<g id="iconWindowRightSide_0_Layer1_0_FILL">
<path fill="#FFFFFF" fill-opacity="0" stroke="none" d="
M 14 14
L 14 0 0 0 0 14 14 14 Z"/>
</g>

<g id="iconWindowRightSide_0_Layer0_0_FILL">
<path fill="#FFFFFF" stroke="none" d="
M 14 0
L 0 0 0 14 14 14 14 0
M 7 13
L 1 13 1 1 7 1 7 13 Z"/>
</g>
</defs><symbol id="btn-arrow-down" viewBox="0 0 32 32">


<g transform="matrix( 1, 0, 0, 1, 0,8) ">
<g transform="matrix( 1, 0, 0, 1, 0,0) ">
<use xlink:href="#btn_arrow_down_0_Layer1_0_FILL"/>
</g>

<g transform="matrix( 1, 0, 0, 1, 0,0) ">
<use xlink:href="#btn_arrow_down_0_Layer0_0_FILL"/>
</g>
</g>
</symbol><symbol id="btn-arrow-up" viewBox="0 0 32 32">


<g transform="matrix( 1, 0, 0, 1, 0,8) ">
<g transform="matrix( 1, 0, 0, 1, 0,0) ">
<use xlink:href="#btn_arrow_up_0_Layer1_0_FILL"/>
</g>

<g transform="matrix( 1, 0, 0, 1, 0,0) ">
<use xlink:href="#btn_arrow_up_0_Layer0_0_FILL"/>
</g>
</g>
</symbol><symbol id="icon-account" viewBox="0 0 15 15">


<g transform="matrix( 1, 0, 0, 1, 0,0) ">
<g transform="matrix( 1, 0, 0, 1, 0,0) ">
<use xlink:href="#icon_account_0_Layer1_0_FILL"/>
</g>

<g transform="matrix( 1, 0, 0, 1, 0,0) ">
<use xlink:href="#icon_account_0_Layer0_0_FILL"/>
</g>
</g>
</symbol><symbol id="icon-add" viewBox="0 0 15 15">


<g transform="matrix( 1, 0, 0, 1, 0,0) ">
<g transform="matrix( 1, 0, 0, 1, 0,0) ">
<use xlink:href="#icon_add_0_Layer1_0_FILL"/>
</g>

<g transform="matrix( 1, 0, 0, 1, 0,0) ">
<use xlink:href="#icon_add_0_Layer0_0_FILL"/>
</g>
</g>
</symbol><symbol id="icon-addsmall" viewBox="0 0 22 22">


<g transform="matrix( 1, 0, 0, 1, 0,0) ">
<g transform="matrix( 1, 0, 0, 1, 0,0) ">
<use xlink:href="#iconAddSmall_0_Layer1_0_FILL"/>
</g>

<g transform="matrix( 1, 0, 0, 1, 0,0) ">
<use xlink:href="#iconAddSmall_0_Layer0_0_FILL"/>
</g>
</g>
</symbol><symbol id="icon-admin" viewBox="0 0 15 15">


<g transform="matrix( 1, 0, 0, 1, 0,0) ">
<g transform="matrix( 1, 0, 0, 1, 0,0) ">
<use xlink:href="#icon_admin_0_Layer1_0_FILL"/>
</g>

<g transform="matrix( 1, 0, 0, 1, 0,0) ">
<use xlink:href="#icon_admin_0_Layer0_0_FILL"/>
</g>
</g>
</symbol><symbol id="icon-alerts" viewBox="0 0 25 25">


<g transform="matrix( 1, 0, 0, 1, 0,0) ">
<g transform="matrix( 1, 0, 0, 1, 0,0) ">
<use xlink:href="#icon_alerts_0_Layer1_0_FILL"/>
</g>

<g transform="matrix( 1, 0, 0, 1, 0,0) ">
<use xlink:href="#icon_alerts_0_Layer0_0_FILL"/>
</g>
</g>
</symbol><symbol id="icon-analytics" viewBox="0 0 36 36">


<g transform="matrix( 1, 0, 0, 1, 0,0) ">
<g transform="matrix( 1, 0, 0, 1, 0,0) ">
<use xlink:href="#icon_analytics_0_Layer1_0_FILL"/>
</g>

<g transform="matrix( 1, 0, 0, 1, 0,0) ">
<use xlink:href="#icon_analytics_0_Layer0_0_FILL"/>
</g>
</g>
</symbol><symbol id="icon-apps" viewBox="0 0 36 36">


<g transform="matrix( 1, 0, 0, 1, 0,0) ">
<g transform="matrix( 1, 0, 0, 1, 0,0) ">
<use xlink:href="#icon_apps_0_Layer1_0_FILL"/>
</g>

<g transform="matrix( 1, 0, 0, 1, 0,0) ">
<use xlink:href="#icon_apps_0_Layer0_0_FILL"/>
</g>
</g>
</symbol><symbol id="icon-arrow-down" viewBox="0 0 16 5">


<g transform="matrix( 1, 0, 0, 1, 0,0) ">
<g transform="matrix( 1, 0, 0, 1, 0,0) ">
<use xlink:href="#icon_arrow_down_0_Layer0_0_FILL"/>
</g>
</g>
</symbol><symbol id="icon-arrow-left" viewBox="0 0 36 36">


<g transform="matrix( 1, 0, 0, 1, 0,0) ">
<g transform="matrix( 2.38983154296875, 0, 0, 2.38983154296875, -35.75,-25) ">
<use xlink:href="#arrow_0_Layer1_0_FILL"/>
</g>

<g transform="matrix( 1, 0, 0, 1, 0,0) ">
<use xlink:href="#arrow_0_Layer0_0_FILL"/>
</g>
</g>
</symbol><symbol id="icon-arrow-right" viewBox="0 0 36 36">


<g transform="matrix( -1, 0, 0, 1, 36,0) ">
<g transform="matrix( 2.38983154296875, 0, 0, 2.38983154296875, -35.75,-25) ">
<use xlink:href="#arrow_0_Layer1_0_FILL"/>
</g>

<g transform="matrix( 1, 0, 0, 1, 0,0) ">
<use xlink:href="#arrow_0_Layer0_0_FILL"/>
</g>
</g>
</symbol><symbol id="icon-background" viewBox="0 0 25 25">


<g transform="matrix( 1, 0, 0, 1, 0,0) ">
<g transform="matrix( 1, 0, 0, 1, 0,0) ">
<use xlink:href="#icon_background_0_Layer1_0_FILL"/>
</g>

<g transform="matrix( 0.9024810791015625, 0, 0, 0.9024810791015625, 1.2,1.2) ">
<use xlink:href="#icon_background_0_Layer0_0_FILL"/>
</g>
</g>
</symbol><symbol id="icon-close" viewBox="0 0 32 32">


<g transform="matrix( 1, 0, 0, 1, 0,0) ">
<g transform="matrix( 1, 0, 0, 1, 0,0) ">
<use xlink:href="#icon_0_Layer1_0_FILL"/>
</g>

<g transform="matrix( 1, 0, 0, 1, 0,0) ">
<use xlink:href="#icon_0_Layer0_0_FILL"/>
</g>
</g>
</symbol><symbol id="icon-collapse" viewBox="0 0 15 15">


<g transform="matrix( 1, 0, 0, 1, 0,0) ">
<g transform="matrix( 1, 0, 0, 1, 0,0) ">
<use xlink:href="#icon_collapse_0_Layer1_0_FILL"/>
</g>

<g transform="matrix( 1, 0, 0, 1, 0,0) ">
<use xlink:href="#icon_collapse_0_Layer0_0_FILL"/>
</g>
</g>
</symbol><symbol id="icon-colorschemes" viewBox="0 0 25 25">


<g transform="matrix( 1, 0, 0, 1, 0,0) ">
<g transform="matrix( 1, 0, 0, 1, 0,0) ">
<use xlink:href="#icon_colorscheme_0_Layer2_0_FILL"/>
</g>

<g transform="matrix( 1, 0, 0, 1, 0,0) ">
<use xlink:href="#icon_colorscheme_0_Layer1_0_FILL"/>
</g>

<g transform="matrix( 1, 0, 0, 1, 3,4.05) ">
<g transform="matrix( 1, 0, 0, 1, 0,0) ">
<use xlink:href="#colorscheme_colors_0_Layer0_0_FILL"/>
</g>
</g>
</g>
</symbol><symbol id="icon-component-menu" viewBox="0 0 32 32">


<g transform="matrix( 1, 0, 0, 1, 0,0) ">
<g transform="matrix( 1, 0, 0, 1, 0,0) ">
<use xlink:href="#icon_menu_0_Layer1_0_FILL"/>
</g>
</g>
</symbol><symbol id="icon-component-textbox" viewBox="0 0 48 48">


<g transform="matrix( 1, 0, 0, 1, 0,0) ">
<g transform="matrix( 1, 0, 0, 1, 0,0) ">
<use xlink:href="#component_text_outline_0_Layer1_0_1_STROKES"/>
</g>

<g transform="matrix( 1, 0, 0, 1, 0,0) ">
<use xlink:href="#component_text_outline_0_Layer0_0_FILL"/>
</g>
</g>
</symbol><symbol id="icon-componentselect" viewBox="0 0 22 19">


<g transform="matrix( 1, 0, 0, 1, 0,0) ">
<g transform="matrix( 1, 0, 0, 1, 0,0) ">
<use xlink:href="#iconComponentSelect_0_Layer1_0_FILL"/>
</g>

<g transform="matrix( 1, 0, 0, 1, 0,0) ">
<use xlink:href="#iconComponentSelect_0_Layer0_0_FILL"/>
</g>
</g>
</symbol><symbol id="icon-cycle" viewBox="0 0 25 25">


<g transform="matrix( 1, 0, 0, 1, 0,0) ">
<g transform="matrix( 1, 0, 0, 1, 0,0) ">
<use xlink:href="#icon_cycle_0_Layer1_0_FILL"/>
</g>

<g transform="matrix( 1, 0, 0, 1, 0,0) ">
<use xlink:href="#icon_cycle_0_Layer0_0_FILL"/>
</g>
</g>
</symbol><symbol id="icon-dashboard" viewBox="0 0 15 15">


<g transform="matrix( 1, 0, 0, 1, 0,0) ">
<g transform="matrix( 1, 0, 0, 1, 0,0) ">
<use xlink:href="#icon_dashboard_0_Layer1_0_FILL"/>
</g>

<g transform="matrix( 1, 0, 0, 1, 0,0) ">
<use xlink:href="#icon_dashboard_0_Layer0_0_FILL"/>
</g>
</g>
</symbol><symbol id="icon-design" viewBox="0 0 36 36">


<g transform="matrix( 1, 0, 0, 1, 0,0) ">
<g transform="matrix( 1, 0, 0, 1, 0,0) ">
<use xlink:href="#icon_designs_0_Layer1_0_FILL"/>
</g>

<g transform="matrix( 1, 0, 0, 1, 0,0) ">
<use xlink:href="#icon_designs_0_Layer0_0_FILL"/>
</g>
</g>
</symbol><symbol id="icon-expand" viewBox="0 0 15 15">


<g transform="matrix( 1, 0, 0, 1, 0,0) ">
<g transform="matrix( 1, 0, 0, 1, 0,0) ">
<use xlink:href="#icon_expand_0_Layer1_0_FILL"/>
</g>

<g transform="matrix( 1, 0, 0, 1, 0,0) ">
<use xlink:href="#icon_expand_0_Layer0_0_FILL"/>
</g>
</g>
</symbol><symbol id="icon-folder" viewBox="0 0 32 32">


<g transform="matrix( 1, 0, 0, 1, 0,0) ">
<g transform="matrix( 1, 0, 0, 1, 0,0) ">
<use xlink:href="#icon_folder_0_Layer1_0_FILL"/>
</g>

<g transform="matrix( 1, 0, 0, 1, 0,0) ">
<use xlink:href="#icon_folder_0_Layer0_0_FILL"/>
</g>
</g>
</symbol><symbol id="icon-folderfiles" viewBox="0 0 25 25">


<g transform="matrix( 1, 0, 0, 1, 0,0) ">
<g transform="matrix( 1, 0, 0, 1, 0,0) ">
<use xlink:href="#iconFolderFiles_0_Layer1_0_FILL"/>
</g>

<g transform="matrix( 1, 0, 0, 1, 0,0) ">
<use xlink:href="#iconFolderFiles_0_Layer0_0_FILL"/>
</g>
</g>
</symbol><symbol id="icon-fonts" viewBox="0 0 25 25">


<g transform="matrix( 1, 0, 0, 1, 0,0) ">
<g transform="matrix( 1, 0, 0, 1, 0,0) ">
<use xlink:href="#icon_fonts_0_Layer1_0_FILL"/>
</g>

<g transform="matrix( 1, 0, 0, 1, 0,0) ">
<use xlink:href="#icon_fonts_0_Layer0_0_FILL"/>
</g>
</g>
</symbol><symbol id="icon-grid" viewBox="0 0 25 25">


<g transform="matrix( 1, 0, 0, 1, 0,0) ">
<g transform="matrix( 1, 0, 0, 1, 0,0) ">
<use xlink:href="#icon_grid_0_Layer1_0_FILL"/>
</g>

<g transform="matrix( 1, 0, 0, 1, 0,0) ">
<use xlink:href="#icon_grid_0_Layer0_0_FILL"/>
</g>
</g>
</symbol><symbol id="icon-help" viewBox="0 0 18 18">


<g transform="matrix( 1, 0, 0, 1, 0,0) ">
<g transform="matrix( 1, 0, 0, 1, 0,0) ">
<use xlink:href="#iconHelp_0_Layer1_0_FILL"/>
</g>

<g transform="matrix( 1, 0, 0, 1, 0,0) ">
<use xlink:href="#iconHelp_0_Layer0_0_FILL"/>
</g>
</g>
</symbol><symbol id="icon-history" viewBox="0 0 32 32">


<g transform="matrix( 1, 0, 0, 1, 2,2) ">
<g transform="matrix( 1, 0, 0, 1, 0,0) ">
<use xlink:href="#iconHistory_0_Layer1_0_FILL"/>
</g>

<g transform="matrix( 1, 0, 0, 1, 0,0) ">
<use xlink:href="#iconHistory_0_Layer0_0_FILL"/>
</g>
</g>
</symbol><symbol id="icon-layers" viewBox="0 0 36 36">


<g transform="matrix( 1, 0, 0, 1, 0,0) ">
<g transform="matrix( 1, 0, 0, 1, 0,0) ">
<use xlink:href="#icon_layers_0_Layer1_0_FILL"/>
</g>

<g transform="matrix( 1, 0, 0, 1, 0,0) ">
<use xlink:href="#icon_layers_0_Layer0_0_FILL"/>
</g>
</g>
</symbol><symbol id="icon-layout" viewBox="0 0 36 36">


<g transform="matrix( 1, 0, 0, 1, 0,0) ">
<g transform="matrix( 1, 0, 0, 1, 0,0) ">
<use xlink:href="#iconLayout_0_Layer1_0_FILL"/>
</g>

<g transform="matrix( 1, 0, 0, 1, 0,0) ">
<use xlink:href="#iconLayout_0_Layer0_0_FILL"/>
</g>
</g>
</symbol><symbol id="icon-logo-2015" viewBox="0 0 120 25">


<g transform="matrix( 1, 0, 0, 1, 0,0) ">
<g transform="matrix( 1, 0, 0, 1, 0,0) ">
<use xlink:href="#logo_websilk_0_Layer1_0_FILL"/>
</g>

<g transform="matrix( 1, 0, 0, 1, 0,0) ">
<use xlink:href="#logo_websilk_0_Layer0_0_FILL"/>
</g>
</g>
</symbol><symbol id="icon-logo" viewBox="0 0 92 30">


<g transform="matrix( 1, 0, 0, 1, 0,0) ">
<g transform="matrix( 1, 0, 0, 1, 0,0) ">
<use xlink:href="#icon_logo_0_Layer1_0_FILL"/>
</g>

<g transform="matrix( 1, 0, 0, 1, 0,0) ">
<use xlink:href="#icon_logo_0_Layer0_0_FILL"/>
</g>
</g>
</symbol><symbol id="icon-logout" viewBox="0 0 15 15">


<g transform="matrix( 1, 0, 0, 1, 0,0) ">
<g transform="matrix( 1, 0, 0, 1, 0,0) ">
<use xlink:href="#icon_logout_0_Layer1_0_FILL"/>
</g>

<g transform="matrix( 1, 0, 0, 1, 0,0) ">
<use xlink:href="#icon_logout_0_Layer0_0_FILL"/>
</g>
</g>
</symbol><symbol id="icon-movefolder" viewBox="0 0 31 25">


<g transform="matrix( 1, 0, 0, 1, 0,4) ">
<g transform="matrix( 1, 0, 0, 1, 0,0) ">
<use xlink:href="#iconMoveFolder_0_Layer1_0_FILL"/>
</g>

<g transform="matrix( 1, 0, 0, 1, 0,0) ">
<use xlink:href="#iconMoveFolder_0_Layer0_0_FILL"/>
</g>
</g>
</symbol><symbol id="icon-openwindow" viewBox="0 0 15 15">


<g transform="matrix( 1, 0, 0, 1, 0,0) ">
<g transform="matrix( 1, 0, 0, 1, 0,0) ">
<use xlink:href="#icon_openwindow_0_Layer1_0_FILL"/>
</g>

<g transform="matrix( 1, 0, 0, 1, 0,0) ">
<use xlink:href="#icon_openwindow_0_Layer0_0_FILL"/>
</g>
</g>
</symbol><symbol id="icon-options" viewBox="0 0 25 25">


<g transform="matrix( 1, 0, 0, 1, 0.2,0.2) ">
<g transform="matrix( 1, 0, 0, 1, 0,0) ">
<use xlink:href="#icon_options_0_Layer1_0_FILL"/>
</g>

<g transform="matrix( 1, 0, 0, 1, 0,0) ">
<use xlink:href="#icon_options_0_Layer0_0_FILL"/>
</g>
</g>
</symbol><symbol id="icon-pages" viewBox="0 0 36 36">


<g transform="matrix( 1, 0, 0, 1, 0,0) ">
<g transform="matrix( 1, 0, 0, 1, 0,0) ">
<use xlink:href="#icon_pages_0_Layer2_0_FILL"/>
</g>

<g transform="matrix( 1, 0, 0, 1, 0,0) ">
<use xlink:href="#icon_pages_0_Layer1_0_FILL"/>
</g>

<g transform="matrix( 1, 0, 0, 1, 0,0) ">
<use xlink:href="#icon_pages_0_Layer0_0_FILL"/>
</g>
</g>
</symbol><symbol id="icon-panel" viewBox="0 0 20 20">


<g transform="matrix( 1, 0, 0, 1, 0,0) ">
<g transform="matrix( 1, 0, 0, 1, 0,0) ">
<use xlink:href="#icon_panel_0_Layer1_0_FILL"/>
</g>

<g transform="matrix( 1, 0, 0, 1, 0,0) ">
<use xlink:href="#icon_panel_0_Layer0_0_FILL"/>
</g>
</g>
</symbol><symbol id="icon-panelbook" viewBox="0 0 32 32">


<g transform="matrix( 1, 0, 0, 1, 0,0) ">
<g transform="matrix( 1, 0, 0, 1, 0,0) ">
<use xlink:href="#iconPanelBook_0_Layer1_0_FILL"/>
</g>

<g transform="matrix( 1, 0, 0, 1, 0,0) ">
<use xlink:href="#iconPanelBook_0_Layer0_0_FILL"/>
</g>
</g>
</symbol><symbol id="icon-panelgrid" viewBox="0 0 32 32">


<g transform="matrix( 1, 0, 0, 1, 0,0) ">
<g transform="matrix( 1, 0, 0, 1, 0,0) ">
<use xlink:href="#iconPanelGrid_0_Layer1_0_FILL"/>
</g>

<g transform="matrix( 1, 0, 0, 1, 0,0) ">
<use xlink:href="#iconPanelGrid_0_Layer0_0_FILL"/>
</g>
</g>
</symbol><symbol id="icon-panelrows" viewBox="0 0 32 32">


<g transform="matrix( 1, 0, 0, 1, 0,0) ">
<g transform="matrix( 1, 0, 0, 1, 0,0) ">
<use xlink:href="#iconPanelRows_0_Layer1_0_FILL"/>
</g>

<g transform="matrix( 1, 0, 0, 1, 0,0) ">
<use xlink:href="#iconPanelRows_0_Layer0_0_FILL"/>
</g>
</g>
</symbol><symbol id="icon-panelslideshow" viewBox="0 0 32 32">


<g transform="matrix( 1, 0, 0, 1, 0,0) ">
<g transform="matrix( 1, 0, 0, 1, 0,0) ">
<use xlink:href="#iconPanelSlideshow_0_Layer1_0_FILL"/>
</g>

<g transform="matrix( 1, 0, 0, 1, 0,0) ">
<use xlink:href="#iconPanelSlideshow_0_Layer0_0_FILL"/>
</g>
</g>
</symbol><symbol id="icon-photos" viewBox="0 0 36 36">


<g transform="matrix( 1, 0, 0, 1, 0,0) ">
<g transform="matrix( 1, 0, 0, 1, 0,0) ">
<use xlink:href="#icon_photos_0_Layer1_0_FILL"/>
</g>

<g transform="matrix( 1, 0, 0, 1, 0,0) ">
<use xlink:href="#icon_photos_0_Layer0_0_FILL"/>
</g>
</g>
</symbol><symbol id="icon-plus" viewBox="0 0 25 25">


<g transform="matrix( 1, 0, 0, 1, 0,0) ">
<use xlink:href="#Layer1_0_FILL"/>
</g>

<g transform="matrix( 1, 0, 0, 1, 0,0) ">
<use xlink:href="#Layer0_0_FILL"/>
</g>
</symbol><symbol id="icon-position" viewBox="0 0 22 19">


<g transform="matrix( 1, 0, 0, 1, 0,0) ">
<g transform="matrix( 1, 0, 0, 1, 0,0) ">
<use xlink:href="#icon_position_0_Layer0_0_FILL"/>
</g>
</g>
</symbol><symbol id="icon-publish" viewBox="0 0 15 15">


<g transform="matrix( 1, 0, 0, 1, 0,0) ">
<g transform="matrix( 1, 0, 0, 1, 0,0) ">
<use xlink:href="#icon_publish_0_Layer1_0_FILL"/>
</g>

<g transform="matrix( 1, 0, 0, 1, 0,0) ">
<use xlink:href="#icon_publish_0_Layer0_0_FILL"/>
</g>
</g>
</symbol><symbol id="icon-remove" viewBox="0 0 25 25">


<g transform="matrix( 1, 0, 0, 1, 0,0) ">
<g transform="matrix( 1, 0, 0, 1, 0,0) ">
<use xlink:href="#iconRemove_0_Layer1_0_FILL"/>
</g>

<g transform="matrix( 1, 0, 0, 1, 0,0) ">
<use xlink:href="#iconRemove_0_Layer0_0_FILL"/>
</g>
</g>
</symbol><symbol id="icon-resize" viewBox="0 0 10 10">


<g transform="matrix( 1, 0, 0, 1, 0,0) ">
<g transform="matrix( 1, 0, 0, 1, 0,0) ">
<use xlink:href="#icon_resize_0_Layer1_0_FILL"/>
</g>

<g transform="matrix( 1, 0, 0, 1, 0,0) ">
<use xlink:href="#icon_resize_0_Layer0_0_FILL"/>
</g>
</g>
</symbol><symbol id="icon-save" viewBox="0 0 25 25">


<g transform="matrix( 1, 0, 0, 1, 0,0) ">
<g transform="matrix( 1, 0, 0, 1, 0,0) ">
<use xlink:href="#iconSave_0_Layer0_0_FILL"/>
</g>
</g>
</symbol><symbol id="icon-screencell" viewBox="0 0 33 25">


<g transform="matrix( 1, 0, 0, 1, 0,0) ">
<g transform="matrix( 1, 0, 0, 1, 0,0) ">
<use xlink:href="#iconScreenCell_0_Layer1_0_FILL"/>
</g>

<g transform="matrix( 1, 0, 0, 1, 0,0) ">
<g transform="matrix( 1, 0, 0, 1, 0,0) ">
<use xlink:href="#iconScreen_4_Layer0_0_FILL"/>
</g>
</g>
</g>
</symbol><symbol id="icon-screendesktop" viewBox="0 0 33 25">


<g transform="matrix( 1, 0, 0, 1, 0,0) ">
<g transform="matrix( 1, 0, 0, 1, 0,0) ">
<use xlink:href="#iconScreenDesktop_0_Layer1_0_FILL"/>
</g>

<g transform="matrix( 1, 0, 0, 1, 0,0) ">
<use xlink:href="#iconScreenDesktop_0_Layer0_0_FILL"/>
</g>
</g>
</symbol><symbol id="icon-screenhd" viewBox="0 0 33 25">


<g transform="matrix( 1, 0, 0, 1, 0,0) ">
<g transform="matrix( 1, 0, 0, 1, 0,0) ">
<use xlink:href="#iconScreenHd_0_Layer1_0_FILL"/>
</g>

<g transform="matrix( 1, 0, 0, 1, 0,0) ">
<use xlink:href="#iconScreenHd_0_Layer0_0_FILL"/>
</g>
</g>
</symbol><symbol id="icon-screenmobile" viewBox="0 0 33 25">


<g transform="matrix( 1, 0, 0, 1, 0,0) ">
<g transform="matrix( 1, 0, 0, 1, 0,0) ">
<use xlink:href="#iconScreenMobile_0_Layer1_0_FILL"/>
</g>

<g transform="matrix( 1, 0, 0, 1, 0,0) ">
<use xlink:href="#iconScreenMobile_0_Layer0_0_FILL"/>
</g>
</g>
</symbol><symbol id="icon-screentablet" viewBox="0 0 33 25">


<g transform="matrix( 1, 0, 0, 1, 0,0) ">
<g transform="matrix( 1, 0, 0, 1, 0,0) ">
<use xlink:href="#iconScreenTablet_0_Layer1_0_FILL"/>
</g>

<g transform="matrix( 1, 0, 0, 1, 0,0) ">
<use xlink:href="#iconScreenTablet_0_Layer0_0_FILL"/>
</g>
</g>
</symbol><symbol id="icon-search" viewBox="0 0 25 25">


<g transform="matrix( 1, 0, 0, 1, 0,0) ">
<g transform="matrix( 1, 0, 0, 1, 0,0) ">
<use xlink:href="#icon_search_0_Layer1_0_FILL"/>
</g>

<g transform="matrix( 1, 0, 0, 1, 0,0) ">
<use xlink:href="#icon_search_0_Layer0_0_FILL"/>
</g>
</g>
</symbol><symbol id="icon-settings" viewBox="0 0 36 36">


<g transform="matrix( 1, 0, 0, 1, 0.3,0.3) ">
<g transform="matrix( 1, 0, 0, 1, 0,0) ">
<use xlink:href="#icon_settings_0_Layer1_0_FILL"/>
</g>

<g transform="matrix( 1, 0, 0, 1, 0,0) ">
<use xlink:href="#icon_settings_0_Layer0_0_FILL"/>
</g>
</g>
</symbol><symbol id="icon-sourcecode" viewBox="0 0 25 25">


<g transform="matrix( 1, 0, 0, 1, 0,0) ">
<g transform="matrix( 1, 0, 0, 1, 0,0) ">
<use xlink:href="#icon_sourcecode_0_Layer1_0_FILL"/>
</g>

<g transform="matrix( 1, 0, 0, 1, 0,0) ">
<use xlink:href="#icon_sourcecode_0_Layer0_0_FILL"/>
</g>
</g>
</symbol><symbol id="icon-style" viewBox="0 0 17 17">


<g transform="matrix( 1, 0, 0, 1, 0,0) ">
<g transform="matrix( 1, 0, 0, 1, 0,0) ">
<use xlink:href="#icon_style_0_Layer0_0_FILL"/>
</g>
</g>
</symbol><symbol id="icon-submenu" viewBox="0 0 24 24">


<g transform="matrix( 1, 0, 0, 1, 0,0) ">
<g transform="matrix( 1, 0, 0, 1, 0,0) ">
<use xlink:href="#iconSubMenu_0_Layer1_0_FILL"/>
</g>

<g transform="matrix( 1, 0, 0, 1, 0,0) ">
<use xlink:href="#iconSubMenu_0_Layer0_0_FILL"/>
</g>
</g>
</symbol><symbol id="icon-textbgcolor" viewBox="0 0 32 32">


<g transform="matrix( 1, 0, 0, 1, 0,0) ">
<g transform="matrix( 1, 0, 0, 1, 0,0) ">
<use xlink:href="#iconTextBgColor_0_Layer1_0_FILL"/>
</g>

<g transform="matrix( 1, 0, 0, 1, 0,0) ">
<use xlink:href="#iconTextBgColor_0_Layer0_0_FILL"/>
</g>
</g>
</symbol><symbol id="icon-textbold" viewBox="0 0 32 32">


<g transform="matrix( 1, 0, 0, 1, 0,0) ">
<g transform="matrix( 1, 0, 0, 1, 0,0) ">
<use xlink:href="#iconTextBold_0_Layer1_0_FILL"/>
</g>

<g transform="matrix( 1, 0, 0, 1, 0,0) ">
<use xlink:href="#iconTextBold_0_Layer0_0_FILL"/>
</g>
</g>
</symbol><symbol id="icon-textbullet" viewBox="0 0 32 32">


<g transform="matrix( 1, 0, 0, 1, 0,0) ">
<g transform="matrix( 1, 0, 0, 1, 0,0) ">
<use xlink:href="#iconTextBullet_0_Layer1_0_FILL"/>
</g>

<g transform="matrix( 1, 0, 0, 1, 0,0) ">
<use xlink:href="#iconTextBullet_0_Layer0_0_FILL"/>
</g>
</g>
</symbol><symbol id="icon-textcenter" viewBox="0 0 32 32">


<g transform="matrix( 1, 0, 0, 1, 0,0) ">
<g transform="matrix( 1, 0, 0, 1, 0,0) ">
<use xlink:href="#iconTextCenter_0_Layer1_0_FILL"/>
</g>

<g transform="matrix( 1, 0, 0, 1, 0,0) ">
<use xlink:href="#iconTextCenter_0_Layer0_0_FILL"/>
</g>
</g>
</symbol><symbol id="icon-textcolor" viewBox="0 0 32 32">


<g transform="matrix( 1, 0, 0, 1, 0,0) ">
<g transform="matrix( 1, 0, 0, 1, 0,0) ">
<use xlink:href="#iconTextColor_0_Layer1_0_FILL"/>
</g>

<g transform="matrix( 1, 0, 0, 1, 0,0) ">
<use xlink:href="#iconTextColor_0_Layer0_0_FILL"/>
</g>
</g>
</symbol><symbol id="icon-textindent" viewBox="0 0 32 32">


<g transform="matrix( 1, 0, 0, 1, 0,0) ">
<g transform="matrix( 1, 0, 0, 1, 0,0) ">
<use xlink:href="#iconTextIndent_0_Layer1_0_FILL"/>
</g>

<g transform="matrix( 1, 0, 0, 1, 0,0) ">
<use xlink:href="#iconTextIndent_0_Layer0_0_FILL"/>
</g>
</g>
</symbol><symbol id="icon-textitalic" viewBox="0 0 32 32">


<g transform="matrix( 1, 0, 0, 1, 0,0) ">
<g transform="matrix( 1, 0, 0, 1, 0,0) ">
<use xlink:href="#iconTextItalic_0_Layer1_0_FILL"/>
</g>

<g transform="matrix( 1, 0, 0, 1, 0,0) ">
<use xlink:href="#iconTextItalic_0_Layer0_0_FILL"/>
</g>
</g>
</symbol><symbol id="icon-textleft" viewBox="0 0 32 32">


<g transform="matrix( 1, 0, 0, 1, 0,0) ">
<g transform="matrix( 1, 0, 0, 1, 0,0) ">
<use xlink:href="#iconTextLeft_0_Layer1_0_FILL"/>
</g>

<g transform="matrix( 1, 0, 0, 1, 0,0) ">
<use xlink:href="#iconTextLeft_0_Layer0_0_FILL"/>
</g>
</g>
</symbol><symbol id="icon-textlink" viewBox="0 0 32 32">


<g transform="matrix( 1, 0, 0, 1, 0,0) ">
<g transform="matrix( 1, 0, 0, 1, 0,0) ">
<use xlink:href="#iconTextLink_0_Layer1_0_FILL"/>
</g>

<g transform="matrix( 1, 0, 0, 1, 0,0) ">
<use xlink:href="#iconTextLink_0_Layer0_0_FILL"/>
</g>
</g>
</symbol><symbol id="icon-textmore" viewBox="0 0 32 32">


<g transform="matrix( 1, 0, 0, 1, 0,0) ">
<g transform="matrix( 1, 0, 0, 1, 0,0) ">
<use xlink:href="#iconTextMore_0_Layer1_0_FILL"/>
</g>

<g transform="matrix( 1, 0, 0, 1, 0,0) ">
<use xlink:href="#iconTextMore_0_Layer0_0_FILL"/>
</g>
</g>
</symbol><symbol id="icon-textnumbers" viewBox="0 0 32 32">


<g transform="matrix( 1, 0, 0, 1, 0,0) ">
<g transform="matrix( 1, 0, 0, 1, 0,0) ">
<use xlink:href="#iconTextNumbers_0_Layer1_0_FILL"/>
</g>

<g transform="matrix( 1, 0, 0, 1, 0,0) ">
<use xlink:href="#iconTextNumbers_0_Layer0_0_FILL"/>
</g>
</g>
</symbol><symbol id="icon-textoutdent" viewBox="0 0 32 32">


<g transform="matrix( 1, 0, 0, 1, 0,0) ">
<g transform="matrix( 1, 0, 0, 1, 0,0) ">
<use xlink:href="#iconTextOutdent_0_Layer1_0_FILL"/>
</g>

<g transform="matrix( 1, 0, 0, 1, 0,0) ">
<use xlink:href="#iconTextOutdent_0_Layer0_0_FILL"/>
</g>
</g>
</symbol><symbol id="icon-textphoto" viewBox="0 0 32 32">


<g transform="matrix( 1, 0, 0, 1, 0,0) ">
<g transform="matrix( 1, 0, 0, 1, 0,0) ">
<use xlink:href="#iconTextPhoto_0_Layer1_0_FILL"/>
</g>

<g transform="matrix( 1, 0, 0, 1, 0,0) ">
<use xlink:href="#iconTextPhoto_0_Layer0_0_FILL"/>
</g>
</g>
</symbol><symbol id="icon-textright" viewBox="0 0 32 32">


<g transform="matrix( 1, 0, 0, 1, 0,0) ">
<g transform="matrix( 1, 0, 0, 1, 0,0) ">
<use xlink:href="#iconTextRight_0_Layer1_0_FILL"/>
</g>

<g transform="matrix( 1, 0, 0, 1, 0,0) ">
<use xlink:href="#iconTextRight_0_Layer0_0_FILL"/>
</g>
</g>
</symbol><symbol id="icon-textsource" viewBox="0 0 32 32">


<g transform="matrix( 1, 0, 0, 1, 0,0) ">
<g transform="matrix( 1, 0, 0, 1, 0,0) ">
<use xlink:href="#iconTextSource_0_Layer1_0_FILL"/>
</g>

<g transform="matrix( 1, 0, 0, 1, 0,0) ">
<use xlink:href="#iconTextSource_0_Layer0_0_FILL"/>
</g>
</g>
</symbol><symbol id="icon-textstrikethru" viewBox="0 0 32 32">


<g transform="matrix( 1, 0, 0, 1, 0,0) ">
<g transform="matrix( 1, 0, 0, 1, 0,0) ">
<use xlink:href="#iconTextStrikeThru_0_Layer1_0_FILL"/>
</g>

<g transform="matrix( 1, 0, 0, 1, 0,0) ">
<use xlink:href="#iconTextStrikeThru_0_Layer0_0_FILL"/>
</g>
</g>
</symbol><symbol id="icon-texttable" viewBox="0 0 32 32">


<g transform="matrix( 1, 0, 0, 1, 0,0) ">
<g transform="matrix( 1, 0, 0, 1, 0,0) ">
<use xlink:href="#iconTextTable_0_Layer2_0_FILL"/>
</g>

<g transform="matrix( 1, 0, 0, 1, 0,0) ">
<use xlink:href="#iconTextTable_0_Layer1_0_FILL"/>
</g>

<g transform="matrix( 1, 0, 0, 1, 0,0) ">
<use xlink:href="#iconTextTable_0_Layer0_0_FILL"/>
</g>
</g>
</symbol><symbol id="icon-textunderline" viewBox="0 0 32 32">


<g transform="matrix( 1, 0, 0, 1, 0,0) ">
<g transform="matrix( 1, 0, 0, 1, 0,0) ">
<use xlink:href="#iconTextUnderline_0_Layer1_0_FILL"/>
</g>

<g transform="matrix( 1, 0, 0, 1, 0,0) ">
<use xlink:href="#iconTextUnderline_0_Layer0_0_FILL"/>
</g>
</g>
</symbol><symbol id="icon-timeline" viewBox="0 0 36 36">


<g transform="matrix( 1, 0, 0, 1, 0,0) ">
<g transform="matrix( 1, 0, 0, 1, 0,0) ">
<use xlink:href="#iconTimeline_0_Layer1_0_FILL"/>
</g>

<g transform="matrix( 1, 0, 0, 1, 0,0) ">
<use xlink:href="#iconTimeline_0_Layer0_0_FILL"/>
</g>
</g>
</symbol><symbol id="icon-upload" viewBox="0 0 25 25">


<g transform="matrix( 1, 0, 0, 1, 0,0) ">
<g transform="matrix( 1, 0, 0, 1, 0,0) ">
<use xlink:href="#iconUpload_0_Layer1_0_FILL"/>
</g>

<g transform="matrix( 1, 0, 0, 1, 0,0) ">
<use xlink:href="#iconUpload_0_Layer0_0_FILL"/>
</g>
</g>
</symbol><symbol id="icon-users" viewBox="0 0 36 36">


<g transform="matrix( 1, 0, 0, 1, 0,0) ">
<g transform="matrix( 1, 0, 0, 1, 0,0) ">
<use xlink:href="#icon_users_0_Layer1_0_FILL"/>
</g>

<g transform="matrix( 1, 0, 0, 1, 0,0) ">
<use xlink:href="#icon_users_0_Layer0_0_FILL"/>
</g>
</g>
</symbol><symbol id="icon-websites" viewBox="0 0 15 15">


<g transform="matrix( 1, 0, 0, 1, 0,0) ">
<g transform="matrix( 1, 0, 0, 1, 0,0) ">
<use xlink:href="#icon_websites_0_Layer1_0_FILL"/>
</g>

<g transform="matrix( 1, 0, 0, 1, 0,0) ">
<use xlink:href="#icon_websites_0_Layer0_0_FILL"/>
</g>
</g>
</symbol><symbol id="icon-windowleftside" viewBox="0 0 14 14">


<g transform="matrix( 1, 0, 0, 1, 0,0) ">
<g transform="matrix( 1, 0, 0, 1, 0,0) ">
<use xlink:href="#iconWindowLeftSide_0_Layer0_0_FILL"/>
</g>
</g>
</symbol><symbol id="icon-windowmaximize" viewBox="0 0 14 14">


<g transform="matrix( 1, 0, 0, 1, 0,0) ">
<g transform="matrix( 1, 0, 0, 1, 0,0) ">
<use xlink:href="#iconWindowMaximize_0_Layer0_0_FILL"/>
</g>
</g>
</symbol><symbol id="icon-windowminimize" viewBox="0 0 14 14">


<g transform="matrix( 1, 0, 0, 1, 0,0) ">
<g transform="matrix( 1, 0, 0, 1, 0,0) ">
<use xlink:href="#iconWindowMinimize_0_Layer1_0_FILL"/>
</g>

<g transform="matrix( 1, 0, 0, 1, 0,0) ">
<use xlink:href="#iconWindowMinimize_0_Layer0_0_FILL"/>
</g>
</g>
</symbol><symbol id="icon-windowrightside" viewBox="0 0 14 14">


<g transform="matrix( 1, 0, 0, 1, 0,0) ">
<g transform="matrix( 1, 0, 0, 1, 0,0) ">
<use xlink:href="#iconWindowRightSide_0_Layer1_0_FILL"/>
</g>

<g transform="matrix( 1, 0, 0, 1, 0,0) ">
<use xlink:href="#iconWindowRightSide_0_Layer0_0_FILL"/>
</g>
</g>
</symbol></svg>